<?xml version="1.0" encoding="UTF-8"?>
<svg width="18px" height="19px" viewBox="0 0 18 19" version="1.1" xmlns="http://www.w3.org/2000/svg" xmlns:xlink="http://www.w3.org/1999/xlink">
    <!-- Generator: Sketch 59 (86127) - https://sketch.com -->
    <title>Path_4</title>
    <desc>Created with Sketch.</desc>
    <g id="Page-1" stroke="none" stroke-width="1" fill="none" fill-rule="evenodd">
        <g id="IM-/-New-Config_Connect_01" transform="translate(-1135.000000, -547.000000)" fill="#158BFF" fill-rule="nonzero">
            <g id="Group-3" transform="translate(-248.482328, 0.000000)">
                <g id="Group-2">
                    <g id="Form/Default/Placeholder" transform="translate(447.070686, 290.000000)">
                        <g id="Mask">
                            <path d="M940,260 L937,260 C937.001358,259.867644 937.054708,259.740122 937.150362,259.640593 L939.401769,257.240632 C939.553708,257.085359 939.771851,256.997631 940,257.000049 L940,260 Z M948.199886,270.99862 L937.800114,270.99862 C937.386049,271.022844 937.028882,270.725288 937,270.332046 L937,261.667398 L940.999714,261.667398 C941.413779,261.691622 941.770947,261.394066 941.799828,261.000824 L941.799828,257.00138 L948.199886,257.00138 C948.613951,256.977156 948.971118,257.274712 949,257.667954 L949,270.332046 C948.971118,270.725288 948.613951,271.022844 948.199886,270.99862 L948.199886,270.99862 Z M946,267.5 C945.971919,267.207538 945.624649,266.986239 945.222059,267.004255 L939.777309,267.004255 C939.512331,266.979005 939.251213,267.067589 939.107663,267.231433 C938.964112,267.395277 938.964112,267.604723 939.107663,267.768567 C939.251213,267.932411 939.512331,268.020995 939.777309,267.995745 L945.222059,267.995745 C945.624649,268.013761 945.971919,267.792462 946,267.5 L946,267.5 Z M946,265.5 C945.971919,265.207538 945.624649,264.986239 945.222059,265.004255 L939.777309,265.004255 C939.512331,264.979005 939.251213,265.067589 939.107663,265.231433 C938.964112,265.395277 938.964112,265.604723 939.107663,265.768567 C939.251213,265.932411 939.512331,266.020995 939.777309,265.995745 L945.222059,265.995745 C945.624649,266.013761 945.971919,265.792462 946,265.5 L946,265.5 Z M946,263.49909 C945.971921,263.205263 945.624683,262.982931 945.22213,263.001031 L939.77787,263.001031 C939.375317,262.982931 939.028079,263.205263 939,263.49909 C939.026771,263.793647 939.374405,264.017049 939.77787,263.998976 L945.22213,263.998976 C945.625595,264.017049 945.973229,263.793647 946,263.49909 L946,263.49909 Z M953.203316,262.000569 L949.200172,262.000569 L949.200172,270.666029 C949.142408,271.452512 948.428073,272.047624 947.599943,271.999177 L942,271.999177 L942,275.332046 C942.028882,275.725288 942.386049,276.022844 942.800114,275.99862 L953.199886,275.99862 C953.613951,276.022844 953.971118,275.725288 954,275.332046 L954,262.667142 C953.970671,262.274226 953.613639,261.977147 953.199886,262.001383 L953.203316,262.000569 Z" id="Path_4"></path>
                        </g>
                    </g>
                </g>
            </g>
        </g>
    </g>
</svg>