<?xml version="1.0" encoding="UTF-8"?>
<svg width="43px" height="30px" viewBox="0 0 43 30" version="1.1" xmlns="http://www.w3.org/2000/svg" xmlns:xlink="http://www.w3.org/1999/xlink">
    <!-- Generator: Sketch 59 (86127) - https://sketch.com -->
    <title>Shape</title>
    <desc>Created with Sketch.</desc>
    <g id="Page-1" stroke="none" stroke-width="1" fill="none" fill-rule="evenodd">
        <g id="IM-/-New-Config---Connect_02" transform="translate(-1109.000000, -566.000000)" fill="#158BFF" fill-rule="nonzero">
            <g id="Group-3" transform="translate(198.517672, 290.000000)">
                <g id="connect_screen" transform="translate(-0.000000, 0.000000)">
                    <g id="Form/Default/Placeholder" transform="translate(0.070686, 0.000000)">
                        <g id="Mask">
                            <g id="noun_Download_2903417" transform="translate(911.000000, 276.000000)">
                                <path d="M9,29.5 L33,29.5 C35.4,29.5 37.66,28.57 39.37,26.87 C41.07,25.16 42,22.9 42,20.5 C42,15.54 37.96,11.5 33,11.5 L32.95,11.5 C32.44,5.35 27.28,0.5 21,0.5 C14.72,0.5 9.56,5.35 9.05,11.5 L9,11.5 C6.6,11.5 4.34,12.43 2.63,14.13 C0.93,15.84 0,18.1 0,20.5 C0,25.46 4.04,29.5 9,29.5 Z M14.29,16.79 C14.68,16.4 15.31,16.4 15.7,16.79 L20,21.09 L20,7.5 C20,6.95 20.45,6.5 21,6.5 C21.55,6.5 22,6.95 22,7.5 L22,21.09 L26.29,16.8 C26.68,16.41 27.31,16.41 27.7,16.8 C28.09,17.19 28.09,17.82 27.7,18.21 L21.7,24.21 C21.61,24.3 21.5,24.38 21.37,24.43 C21.25,24.48 21.12,24.51 20.99,24.51 C20.86,24.51 20.73,24.48 20.61,24.43 C20.49,24.38 20.38,24.31 20.28,24.21 L14.28,18.21 C13.9,17.82 13.9,17.18 14.29,16.79 Z" id="Shape"></path>
                            </g>
                        </g>
                    </g>
                </g>
            </g>
        </g>
    </g>
</svg>