<?xml version="1.0" encoding="utf-8"?>
<!-- Generator: Adobe Illustrator 24.0.0, SVG Export Plug-In . SVG Version: 6.00 Build 0)  -->
<svg version="1.1" id="Layer_1" xmlns="http://www.w3.org/2000/svg" xmlns:xlink="http://www.w3.org/1999/xlink" x="0px" y="0px"
	 viewBox="0 0 188 50" enable-background="new 0 0 188 50" xml:space="preserve">
<g enable-background="new    ">
	<path fill="#238FFB" d="M76.2,27.8h-5.7L69.5,31h-3.4l5.8-15.6h3L80.7,31h-3.4L76.2,27.8z M71.4,25.2h3.9l-2-5.9L71.4,25.2z"/>
	<path fill="#238FFB" d="M86.8,28.7c0.6,0,1-0.2,1.4-0.5c0.4-0.3,0.5-0.7,0.6-1.3h2.9c0,0.8-0.2,1.5-0.6,2.2c-0.4,0.7-1,1.2-1.7,1.5
		c-0.7,0.4-1.5,0.5-2.4,0.5c-1.7,0-3-0.5-3.9-1.6c-1-1.1-1.4-2.5-1.4-4.4V25c0-1.8,0.5-3.2,1.4-4.3c1-1.1,2.3-1.6,3.9-1.6
		c1.5,0,2.6,0.4,3.5,1.2c0.9,0.8,1.3,1.9,1.3,3.3h-2.9c0-0.6-0.2-1.1-0.6-1.5c-0.4-0.4-0.8-0.6-1.4-0.6c-0.7,0-1.3,0.3-1.6,0.8
		c-0.4,0.5-0.6,1.4-0.6,2.6v0.3c0,1.2,0.2,2.1,0.5,2.6S86.1,28.7,86.8,28.7z"/>
	<path fill="#238FFB" d="M97.2,16.5v2.9h2v2.3h-2v5.8c0,0.4,0.1,0.7,0.2,0.9c0.2,0.2,0.5,0.3,0.9,0.3c0.3,0,0.6,0,0.9-0.1v2.4
		c-0.6,0.2-1.2,0.3-1.9,0.3c-2.2,0-3.3-1.1-3.3-3.3v-6.3h-1.7v-2.3h1.7v-2.9H97.2z"/>
	<path fill="#238FFB" d="M100.9,16.4c0-0.5,0.2-0.8,0.5-1.1c0.3-0.3,0.7-0.5,1.3-0.5c0.5,0,1,0.2,1.3,0.5s0.5,0.7,0.5,1.1
		c0,0.5-0.2,0.9-0.5,1.2c-0.3,0.3-0.7,0.5-1.3,0.5s-0.9-0.2-1.3-0.5S100.9,16.8,100.9,16.4z M104.2,31h-3.1V19.4h3.1V31z"/>
	<path fill="#238FFB" d="M113.5,31c-0.1-0.3-0.2-0.6-0.3-1c-0.8,0.8-1.7,1.3-2.9,1.3c-1.1,0-2.1-0.3-2.8-1s-1.1-1.5-1.1-2.5
		c0-1.2,0.5-2.2,1.4-2.8c0.9-0.7,2.2-1,4-1h1.4v-0.7c0-0.5-0.1-1-0.4-1.3s-0.7-0.5-1.3-0.5c-0.5,0-0.9,0.1-1.2,0.4s-0.4,0.6-0.4,1
		h-3.1c0-0.7,0.2-1.3,0.6-1.9s1-1,1.8-1.3c0.8-0.3,1.6-0.5,2.6-0.5c1.4,0,2.6,0.4,3.4,1.1c0.8,0.7,1.3,1.7,1.3,3v5
		c0,1.1,0.2,1.9,0.5,2.5V31H113.5z M110.9,28.8c0.5,0,0.9-0.1,1.3-0.3c0.4-0.2,0.7-0.5,0.9-0.8v-2h-1.2c-1.6,0-2.4,0.5-2.5,1.6
		l0,0.2c0,0.4,0.1,0.7,0.4,1C110.1,28.7,110.4,28.8,110.9,28.8z"/>
	<path fill="#238FFB" d="M121.4,19.4l0.1,1.3c0.8-1,1.9-1.6,3.3-1.6c1.2,0,2.1,0.4,2.8,1.1s0.9,1.8,0.9,3.2V31h-3.1v-7.4
		c0-0.7-0.1-1.1-0.4-1.4c-0.3-0.3-0.8-0.4-1.4-0.4c-0.9,0-1.5,0.4-2,1.1V31h-3.1V19.4H121.4z"/>
</g>
<g enable-background="new    ">
	<path fill="#238FFB" d="M143.5,23.7c0,1.5-0.3,2.9-0.8,4c-0.5,1.1-1.2,2-2.2,2.6s-2,0.9-3.3,0.9c-1.2,0-2.3-0.3-3.3-0.9
		c-1-0.6-1.7-1.5-2.2-2.6c-0.5-1.1-0.8-2.4-0.8-3.9v-1.1c0-1.5,0.3-2.8,0.8-4c0.5-1.2,1.3-2,2.2-2.6c1-0.6,2-0.9,3.3-0.9
		c1.3,0,2.4,0.3,3.3,0.9c1,0.6,1.7,1.5,2.2,2.6c0.5,1.2,0.8,2.5,0.8,4V23.7z M141.5,22.7c0-1.9-0.4-3.3-1.1-4.3
		c-0.7-1-1.8-1.5-3.1-1.5c-1.3,0-2.3,0.5-3.1,1.5c-0.7,1-1.1,2.4-1.2,4.1v1.1c0,1.8,0.4,3.2,1.1,4.2c0.8,1,1.8,1.5,3.1,1.5
		c1.3,0,2.4-0.5,3.1-1.5c0.7-1,1.1-2.4,1.1-4.2V22.7z"/>
	<path fill="#238FFB" d="M148.2,19.4l0.1,1.5c0.9-1.1,2-1.7,3.5-1.7c2.5,0,3.7,1.4,3.7,4.2V31h-2v-7.7c0-0.8-0.2-1.5-0.6-1.9
		s-1-0.6-1.8-0.6c-0.6,0-1.2,0.2-1.7,0.5c-0.5,0.3-0.9,0.8-1.1,1.4V31h-2V19.4H148.2z"/>
	<path fill="#238FFB" d="M163.2,31.2c-1.6,0-2.9-0.5-3.8-1.6c-1-1-1.5-2.4-1.5-4.2v-0.4c0-1.2,0.2-2.2,0.7-3.1
		c0.4-0.9,1.1-1.6,1.8-2.1c0.8-0.5,1.6-0.8,2.6-0.8c1.5,0,2.7,0.5,3.5,1.5s1.3,2.4,1.3,4.3v0.8h-7.9c0,1.1,0.4,2.1,1,2.8
		c0.6,0.7,1.5,1.1,2.4,1.1c0.7,0,1.3-0.1,1.8-0.4c0.5-0.3,0.9-0.7,1.3-1.1l1.2,0.9C166.7,30.5,165.2,31.2,163.2,31.2z M163,20.8
		c-0.8,0-1.5,0.3-2,0.9c-0.5,0.6-0.9,1.4-1,2.5h5.8V24c-0.1-1-0.3-1.8-0.8-2.3C164.5,21.1,163.8,20.8,163,20.8z"/>
</g>
<path fill="#238FFB" d="M2.8,45.9c0.3,1.2,1.2,2.2,2.4,2.6c10.1,1.7,18.2,1,28-2.1c1.2-0.6,2.2-1.5,2.7-2.7
	c3.3-9.2,4.8-17.9,1.9-27.5c-0.5-1.2-1.5-2.1-2.7-2.5C24.9,11.6,14.4,11.1,4,12.3c-1.2,0.3-2.2,1.2-2.5,2.5
	C0.2,25.2,0.6,35.7,2.8,45.9"/>
<path fill="#2549C9" d="M44.3,33.3c-0.2,1.2-1,2.1-2.2,2.4c-9.4,1.5-19.1,1-28.3-1.5c-1.1-0.4-2-1.3-2.4-2.4
	c-2.1-9-2.6-18.3-1.5-27.4c0.2-1.1,1.2-2,2.3-2.2c10.2-1.5,20.5-1.8,30.7-0.9c1.2,0.1,2.1,1.1,2.2,2.3C46,13.5,45.7,23.5,44.3,33.3"
	/>
<path d="M14.5,39c0.4,1.3,1.4,2.3,2.7,2.8c9.6,2.5,19.5,3.7,29.4,3.5c1.4-0.1,2.5-1.1,2.8-2.5C51,32.7,51.2,22.4,50,12.3
	c-0.2-1.3-1.1-2.5-2.4-2.9c-8.6-2.3-17.8-2-26.3,0.8c-1.3,0.5-2.4,1.5-3.1,2.7C14,20.9,12.6,30.1,14.5,39"/>
<path fill="#FFFFFF" d="M33.7,39.3c-6.7,0-11.8-5.5-11.8-12.3S27,14.3,34.3,14.3s12.4,5.8,12.4,12.9v12.1l-6.2-6.1v-6.1
	c0-3.8-2.8-6.8-6.2-6.8s-6.2,3-6.2,6.6c0,1.7,0.6,3.3,1.8,4.5c1.2,1.2,2.8,1.8,4.5,1.8H38v6.1C38,39.3,33.7,39.3,33.7,39.3z"/>
</svg>
