<?xml version="1.0" encoding="utf-8"?>
<!-- Generator: Adobe Illustrator 23.0.6, SVG Export Plug-In . SVG Version: 6.00 Build 0)  -->
<svg version="1.1" id="Layer_1" xmlns="http://www.w3.org/2000/svg" xmlns:xlink="http://www.w3.org/1999/xlink" x="0px" y="0px"
	 viewBox="0 0 178 50" style="enable-background:new 0 0 178 50;" xml:space="preserve">
<style type="text/css">
	.st0{enable-background:new    ;}
	.st1{fill:#FFFFFF;}
	.st2{filter:url(#filter-4);}
	.st3{fill-rule:evenodd;clip-rule:evenodd;}
	.st4{fill-rule:evenodd;clip-rule:evenodd;fill:#168CFF;}
	.st5{fill-rule:evenodd;clip-rule:evenodd;fill:#2244CC;}
	.st6{fill-rule:evenodd;clip-rule:evenodd;fill:#201A1B;}
	.st7{fill-rule:evenodd;clip-rule:evenodd;fill:#FFFFFF;}
</style>
<filter  filterUnits="objectBoundingBox" height="152.6%" id="filter-4" width="155.6%" x="-27.8%" y="-21.1%">
	<feOffset  dx="0" dy="2" in="SourceAlpha" result="shadowOffsetOuter1"></feOffset>
	<feGaussianBlur  in="shadowOffsetOuter1" result="shadowBlurOuter1" stdDeviation="3"></feGaussianBlur>
	<feColorMatrix  in="shadowBlurOuter1" type="matrix" values="0 0 0 0 0   0 0 0 0 0   0 0 0 0 0  0 0 0 0.17225743 0">
		</feColorMatrix>
</filter>
<title>logo</title>
<desc>Created with Sketch.</desc>
<g id="ActianOne---PoC">
	<g id="logo" transform="translate(141.000000, 15.000000)">
		<g id="ActianOne">
			
				<image style="overflow:visible;" width="120" height="32" xlink:href="D4E0E1D79740A54.png"  transform="matrix(1 0 0 1 -83.9422 -2.5234)">
			</image>
			<g>
				<g class="st0">
					<path class="st1" d="M-74,2.9h3.2l6.2,16.1h-3l-1.6-4.5h-6.6l-1.7,4.5h-2.9L-74,2.9z M-70,12.3l-2.5-6.9l-2.5,6.9H-70z"/>
					<path class="st1" d="M-55.3,15.7l1.6,1.6c-1.1,1.2-2.7,2-4.5,2c-3.3,0-5.8-2.6-5.8-6c0-3.3,2.5-5.9,5.8-5.9
						c1.8,0,3.4,0.7,4.6,1.9l-1.6,1.7c-0.8-0.9-1.8-1.4-2.9-1.4c-1.9,0-3.3,1.6-3.3,3.7c0,2.1,1.4,3.7,3.4,3.7
						C-57,16.9-56,16.5-55.3,15.7z"/>
					<path class="st1" d="M-50,9.5h-2.3V7.5h2.3V4.3l2.6-0.6v3.7h3.2v2.1h-3.2v5.8c0,1.1,0.4,1.6,1.6,1.6c0.5,0,0.9-0.1,1.6-0.3v2.2
						c-0.7,0.2-1.5,0.3-2.2,0.3c-2.3,0-3.5-1.1-3.5-3.2V9.5z"/>
					<path class="st1" d="M-42.4,3.5c0-0.9,0.7-1.6,1.6-1.6c0.9,0,1.6,0.7,1.6,1.6c0,0.9-0.7,1.6-1.6,1.6
						C-41.7,5.1-42.4,4.4-42.4,3.5z M-39.5,19h-2.6V7.5h2.6V19z"/>
					<path class="st1" d="M-37.1,15.7c0-2.1,1.7-3.4,4.4-3.4c1.1,0,2.1,0.2,3.1,0.7v-1.3c0-1.5-0.9-2.3-2.6-2.3c-1,0-2,0.3-3.4,0.9
						l-0.9-1.9c1.7-0.8,3.2-1.2,4.8-1.2c3,0,4.7,1.5,4.7,4.2V19h-2.6v-1.2c-1,0.9-2.1,1.4-3.4,1.4C-35.4,19.2-37.1,17.8-37.1,15.7z
						 M-32.3,17.4c1,0,1.9-0.3,2.7-0.9v-1.9c-0.8-0.4-1.7-0.6-2.7-0.6c-1.5,0-2.4,0.6-2.4,1.7C-34.6,16.7-33.7,17.4-32.3,17.4z"/>
					<path class="st1" d="M-24,7.5h2.6v1.9c0.9-1.4,2.1-2.1,3.7-2.1c2.3,0,4,1.7,4,4.1V19h-2.6v-6.9c0-1.7-1-2.8-2.5-2.8
						c-1,0-1.9,0.5-2.5,1.4V19H-24V7.5z"/>
				</g>
				<g>
				</g>
				<g class="st0">
					<path class="st1" d="M-3.2,19.3c-4.6,0-8.1-3.7-8.1-8.3c0-4.6,3.6-8.3,8.1-8.3c4.6,0,8.1,3.7,8.1,8.3
						C4.9,15.6,1.4,19.3-3.2,19.3z M-3.2,5.1c-3,0-5.3,2.5-5.3,5.8c0,3.3,2.3,5.8,5.3,5.8c3,0,5.3-2.5,5.3-5.8
						C2.1,7.6-0.2,5.1-3.2,5.1z"/>
					<path class="st1" d="M7.5,7.5h2.6v1.9C11,8,12.3,7.3,13.8,7.3c2.3,0,4,1.7,4,4.1V19h-2.6v-6.9c0-1.7-1-2.8-2.5-2.8
						c-1,0-1.9,0.5-2.5,1.4V19H7.5V7.5z"/>
					<path class="st1" d="M26.1,19.2c-3.3,0-5.9-2.6-5.9-6c0-3.4,2.4-6,5.6-6c3.2,0,5.4,2.5,5.4,5.9v0.6h-8.5
						c0.3,1.8,1.7,3.2,3.4,3.2c1.1,0,2.1-0.4,2.7-1.1l1.7,1.6C29.3,18.7,27.9,19.2,26.1,19.2z M22.8,12.3h6c-0.3-1.7-1.5-2.9-3-2.9
						C24.3,9.4,23.1,10.5,22.8,12.3z"/>
				</g>
			</g>
		</g>
		<g id="Path">
			<g class="st2">
				<path id="path-3_1_" class="st3" d="M-133.1,23.4c0.3,1.2,1.3,2.4,2.3,2.7c9.4,1.7,17,1,26.1-2.1c1-0.4,2.1-1.6,2.6-2.7
					c3-9.3,4.5-17.9,1.8-27.6c-0.3-1-1.5-2.2-2.5-2.5c-9.9-2.2-18.9-2.7-29-1.5c-1.1,0.2-2.1,1.3-2.3,2.5
					C-135.5,3-135.2,12.7-133.1,23.4"/>
			</g>
			<g>
				<path class="st4" d="M-133.1,23.4c0.3,1.2,1.3,2.4,2.3,2.7c9.4,1.7,17,1,26.1-2.1c1-0.4,2.1-1.6,2.6-2.7
					c3-9.3,4.5-17.9,1.8-27.6c-0.3-1-1.5-2.2-2.5-2.5c-9.9-2.2-18.9-2.7-29-1.5c-1.1,0.2-2.1,1.3-2.3,2.5
					C-135.5,3-135.2,12.7-133.1,23.4"/>
			</g>
		</g>
		<path class="st5" d="M-96.3,17.9c-0.1,1.1-1.1,2.2-2.1,2.3c-8.8,1.5-17.9,0.9-26.5-1.5c-1-0.3-2-1.3-2.2-2.4
			c-2-8.8-2.5-17.9-1.4-26.8c0.1-1,1.1-2,2.2-2.2c9.5-1.4,19.2-1.7,28.8-0.9c1.1,0.1,2,1.1,2.1,2.2C-94.7-1.6-95,8.2-96.3,17.9"/>
		<path class="st6" d="M-121.7,26.5c9.3,2.5,18.1,3.6,27.7,3.5c1.2-0.1,2.4-1.2,2.6-2.5c1.5-10.3,1.7-19.8,0.6-30.2
			c-0.2-1.3-1.2-2.6-2.2-2.9c-8.2-2.2-16.8-1.8-24.8,0.9c-1.1,0.4-2.4,1.6-3,2.6c-3.9,7.9-5.3,17-3.5,25.8
			C-124,24.9-122.8,26.2-121.7,26.5z"/>
		<path class="st7" d="M-106,24c-6.2,0-11-5.5-11-12.3c0-6.9,4.7-12.7,11.5-12.7C-98.7-1-94,4.8-94,11.9V24l-5.7-6.1v-6
			c0-3.7-2.6-6.8-5.7-6.8s-5.7,3-5.7,6.6c0,3.6,2.6,6.3,5.9,6.3h3.3V24H-106L-106,24z"/>
	</g>
</g>
</svg>
