<?xml version="1.0" encoding="UTF-8"?>
<svg width="158px" height="63px" viewBox="0 0 158 63" version="1.1" xmlns="http://www.w3.org/2000/svg" xmlns:xlink="http://www.w3.org/1999/xlink">
    <!-- Generator: sketchtool 56.3 (101010) - https://sketch.com -->
    <title>B2EB1148-5394-4735-919B-1CFA816E34F0</title>
    <desc>Created with sketchtool.</desc>
    <g id="Actian---Signup" stroke="none" stroke-width="1" fill="none" fill-rule="evenodd">
        <g id="Login-/-Step-4" transform="translate(-762.000000, -454.000000)">
            <g id="Group-6" transform="translate(314.000000, 221.000000)">
                <g id="AmazonWebservices_Logo" transform="translate(448.000000, 233.000000)">
                    <g id="g10" transform="translate(79.000000, 31.500000) scale(-1, 1) rotate(-180.000000) translate(-79.000000, -31.500000) ">
                        <g id="g12">
                            <polyline id="path14" fill="#F68D11" points="43.835599 41.0289287 34.6695752 44.2680547 34.6695752 58.3042671 43.8468157 55.425044 43.835599 41.0289287"></polyline>
                            <polyline id="path16" fill="#F68D11" points="46.2261002 55.425044 55.4033407 58.3042671 55.3713903 44.277772 46.2261002 41.0289287 46.2261002 55.425044"></polyline>
                            <polyline id="path18" fill="#F68D11" points="53.5339029 59.824137 44.9807147 62.6231017 36.5390131 59.824137 44.992951 57.4246645 53.5339029 59.824137"></polyline>
                            <polyline id="path20" fill="#F68D11" points="66.9486492 41.0289287 57.7826253 44.2680547 57.7826253 58.3042671 66.9598658 55.425044 66.9486492 41.0289287"></polyline>
                            <polyline id="path22" fill="#F68D11" points="69.3391504 55.425044 78.5163909 58.3042671 78.4844405 44.277772 69.3391504 41.0289287 69.3391504 55.425044"></polyline>
                            <polyline id="path24" fill="#F68D11" points="76.646953 59.824137 68.0937648 62.6231017 59.6520632 59.824137 68.1060012 57.4246645 76.646953 59.824137"></polyline>
                            <polyline id="path26" fill="#F68D11" points="9.17724049 34.9105797 0 37.7898028 0 23.7535903 9.16609184 20.5144644 9.17724049 34.9105797"></polyline>
                            <polyline id="path28" fill="#F68D11" points="11.5565251 34.9105797 20.7337656 37.7898028 20.7019171 23.7630198 11.5565251 20.5144644 11.5565251 34.9105797"></polyline>
                            <polyline id="path30" fill="#F68D11" points="18.8643277 39.3096726 10.3111055 42.1086374 1.86943788 39.3096726 10.3234778 36.9102001 18.8643277 39.3096726"></polyline>
                            <polyline id="path32" fill="#F68D11" points="32.279142 20.5144644 23.1130501 23.7535903 23.1130501 37.7898028 32.2902906 34.9105797 32.279142 20.5144644"></polyline>
                            <polyline id="path34" fill="#F68D11" points="34.6695752 34.9105797 43.8468157 37.7898028 43.8148653 23.7630198 34.6695752 20.5144644 34.6695752 34.9105797"></polyline>
                            <polyline id="path36" fill="#F68D11" points="41.9773778 39.3096726 33.4241557 42.1086374 24.982488 39.3096726 33.4365279 36.9102001 41.9773778 39.3096726"></polyline>
                            <polyline id="path38" fill="#F68D11" points="20.7226169 0 11.5565251 3.23912595 11.5565251 17.2753384 20.7337656 14.3961153 20.7226169 0"></polyline>
                            <polyline id="path40" fill="#F68D11" points="23.1130501 14.3961153 32.2902906 17.2753384 32.2584422 3.24854461 23.1130501 0 23.1130501 14.3961153"></polyline>
                            <polyline id="path42" fill="#F68D11" points="30.4208527 18.7952083 21.8676306 21.594173 13.4259629 18.7952083 21.8800029 16.3956998 30.4208527 18.7952083"></polyline>
                            <path d="M61.3141634,12.4076519 L60.6398062,12.4051326 C60.3923606,12.4051326 60.0769354,12.2281323 59.9994387,11.9411818 L57.9535939,4.30940514 L55.9301823,11.9245903 C55.8693406,12.1633138 55.6569045,12.4051326 55.3679914,12.4051326 L54.5695714,12.4051326 C54.2820179,12.4051326 54.072301,12.1600747 54.0141784,11.9196596 L52.1318244,4.38365311 L50.1869293,11.9430173 C50.1101124,12.2194227 49.7868696,12.4051326 49.5333058,12.4051326 L48.5628976,12.4069321 C48.3555599,12.4069321 48.1628379,12.3126016 48.059509,12.1607945 C47.98949,12.0578623 47.9701158,11.9411818 48.0024061,11.8396892 L51.0071026,0.5762657 C51.0733827,0.339377262 51.2671245,0.10080088 51.5505992,0.10080088 L52.5155691,0.10080088 C52.7762707,0.10080088 53.004682,0.301981193 53.0706222,0.587372303 L54.9200061,8.09022092 L56.9325409,0.578795817 C56.9930427,0.34879664 57.1878042,0.10080088 57.4726385,0.10080088 L58.4219731,0.10080088 C58.6860736,0.10080088 58.9083668,0.295092292 58.9736272,0.579781951 L61.8658175,11.8350464 C61.8998073,11.9434492 61.8800932,12.0639087 61.811094,12.1654373 C61.7094645,12.3148689 61.5191218,12.4076519 61.3141634,12.4076519" id="path44" fill="#100F0D"></path>
                            <path d="M69.6579745,7.6255863 L64.5601874,7.6255863 C64.6774521,9.14041754 65.6063928,10.7110337 67.1801196,10.7714974 C68.854796,10.713589 69.6209256,9.17892715 69.6579745,7.6255863 Z M67.1763807,12.4881982 C63.7328761,12.4881982 62.1645877,9.264692 62.1645877,6.26990412 C62.1645877,2.53225509 64.1142414,0.117390243 67.1315142,0.117390243 C69.2908849,0.117390243 70.9370099,1.272595 71.6480761,3.29100235 C71.6861446,3.40642321 71.6742482,3.5316874 71.6147661,3.64401669 C71.5423679,3.7803839 71.4050492,3.88328013 71.242578,3.92110592 L70.2867854,4.11469768 C70.0301626,4.15731019 69.736151,3.99632563 69.6389402,3.76282064 C69.1746398,2.64134886 68.3282943,2.00505135 67.2661137,1.97187551 C66.244041,2.00533568 65.3055832,2.6482374 64.8756125,3.60874621 C64.5261976,4.3933345 64.4745331,5.1667298 64.4687548,5.95315359 L71.3894139,5.95567291 C71.5345502,5.95567291 71.6847851,6.02329867 71.7908332,6.13706397 C71.8795465,6.23139451 71.927812,6.34861488 71.9268081,6.4660152 C71.9097974,9.37759354 70.6531952,12.4881982 67.1763807,12.4881982 L67.1763807,12.4881982 Z" id="path46" fill="#100F0D" fill-rule="nonzero"></path>
                            <path d="M80.4408922,6.25190898 C80.4408922,5.56233505 80.3229476,2.11906859 78.0126623,2.03092117 C77.2383751,2.06227231 76.4559304,2.54420387 76.0188218,3.25670001 C75.6969386,3.7955718 75.5089752,4.54053478 75.4607097,5.46224606 L75.4607097,7.4881034 C75.4984383,9.04004062 76.5300281,10.7431011 78.0051846,10.8090353 C80.3232875,10.7121854 80.4408922,6.99618814 80.4408922,6.25190898 Z M78.3749934,12.592678 L78.1917885,12.592678 C77.0487122,12.592678 76.1503623,12.0899296 75.4607097,11.0594197 L75.45969,15.8076185 C75.45969,16.0743065 75.1996682,16.3172409 74.9124545,16.3172409 L73.9172338,16.3172409 C73.657212,16.3172409 73.3662595,16.0991758 73.3655797,15.8076185 L73.3655797,0.985374505 C73.3665993,0.716149153 73.6266212,0.471530362 73.9134949,0.471530362 L74.205807,0.473214707 C74.481804,0.473214707 74.6782649,0.708699164 74.744545,0.927451735 L75.0558914,1.97370021 C75.7791939,0.886120488 76.8685663,0.24729251 78.0344158,0.24729251 L78.2128621,0.24729251 C81.2838387,0.24729251 82.6583854,3.41007982 82.6583854,6.54447403 C82.6583854,8.10468902 82.2950347,9.59648647 81.6618051,10.6372536 C80.9300051,11.8433242 79.6703439,12.592678 78.3749934,12.592678 L78.3749934,12.592678 Z" id="path48" fill="#100F0D" fill-rule="nonzero"></path>
                            <path d="M93.5558486,6.58550296 C92.9086832,7.0778501 92.1306572,7.24232572 91.3512715,7.40712525 L89.8567409,7.70051808 C88.7843634,7.88719971 88.16371,8.19171354 88.16371,9.19368316 C88.16371,10.2528774 89.2003983,10.6577681 90.079374,10.6829253 C91.1527712,10.654241 91.9600285,10.1471379 92.3519306,9.25526255 C92.4450626,9.04507926 92.6513806,8.90367342 92.8658561,8.90367342 C92.9025651,8.90367342 92.9399538,8.90802825 92.9753032,8.91616205 L93.9079827,9.13437117 C94.060257,9.16992957 94.2023342,9.28041976 94.2784713,9.42412898 C94.339313,9.53814621 94.3525691,9.66267261 94.3162,9.7738826 C93.7455116,11.5341676 92.2965273,12.4644446 90.1045264,12.4644446 C88.123942,12.4598018 86.0073984,11.5272935 86.0073984,8.92278426 C86.0073984,7.14266861 87.0638007,6.01221366 89.1494136,5.56233505 L90.8223906,5.22478214 C91.7407944,5.03864037 92.679932,4.7075657 92.679932,3.66341546 C92.679932,2.11766137 90.9811228,1.96006349 90.4675373,1.94881653 C89.3152837,1.97510743 88.010756,2.51932018 87.6939712,3.67172922 C87.6304104,3.92506486 87.3292609,4.10429649 87.0651603,4.0461002 L86.0896536,3.83296571 C85.9428178,3.80021455 85.8085582,3.69911783 85.7303817,3.56261746 C85.6647814,3.44888095 85.646087,3.32151132 85.6763379,3.20524469 C86.1797266,1.29312026 87.9230624,0.140024896 90.3397357,0.120623611 L90.3934395,0.120201805 C92.5517905,0.120201805 94.8579971,1.09883029 94.8579971,3.84408671 C94.8579971,4.96158516 94.3831599,5.96074754 93.5558486,6.58550296" id="path50" fill="#100F0D"></path>
                            <path d="M103.422402,7.6144653 L98.3232551,7.6144653 C98.4398401,9.13070016 99.3687807,10.7020361 100.942508,10.7596926 C102.616504,10.7034398 103.383654,9.16895784 103.422402,7.6144653 Z M100.939788,12.477797 C97.495604,12.477797 95.9269757,9.25414685 95.9269757,6.25950293 C95.9269757,2.52213102 97.8769693,0.107549059 100.894582,0.107549059 C103.054293,0.107549059 104.700418,1.26289202 105.412164,3.28088188 C105.449892,3.3964431 105.437996,3.52198802 105.378174,3.63458724 C105.305776,3.7710984 105.168117,3.87403063 105.005986,3.91113661 L104.048833,4.10472837 C103.824841,4.14323798 103.512475,4.0205111 103.402348,3.75241944 C102.937708,2.63164947 102.091022,1.99535197 101.029861,1.9607689 C100.006769,1.99535197 99.068651,2.63811693 98.6403798,3.59832702 C98.290285,4.3810978 98.2382807,5.15517692 98.2331822,5.94347221 L105.153161,5.94527172 C105.297278,5.94527172 105.446493,6.01250158 105.552541,6.12551108 C105.641595,6.22027351 105.68986,6.33752987 105.688856,6.45561401 C105.672865,9.36690442 104.417283,12.477797 100.939788,12.477797 L100.939788,12.477797 Z" id="path52" fill="#100F0D" fill-rule="nonzero"></path>
                            <path d="M112.223715,12.340746 C112.088776,12.3564737 111.958935,12.3640677 111.832833,12.3640677 C110.671402,12.3640677 109.728186,11.6954401 109.073543,10.4180728 L109.075922,11.5367229 C109.074902,11.8076218 108.819639,12.0456256 108.529706,12.0456256 L107.665346,12.0456256 C107.381871,12.0456256 107.131706,11.8066501 107.129667,11.5323681 L107.128308,0.665820334 C107.128308,0.39308233 107.378472,0.153661616 107.663986,0.153661616 L108.672463,0.154083422 C108.934864,0.154083422 109.230235,0.372132383 109.232615,0.665820334 L109.233295,6.14422603 C109.233295,7.04761826 109.312831,7.72819461 109.720368,8.53336934 C110.302613,9.68027186 111.115649,10.242908 112.206041,10.2519056 C112.479319,10.253993 112.719286,10.5066449 112.719286,10.7927317 L112.719286,11.8091694 C112.719286,12.0751736 112.501412,12.3086786 112.223715,12.340746" id="path54" fill="#100F0D"></path>
                            <path d="M122.811872,12.5541324 L122.015491,12.5537365 C121.766006,12.5537365 121.446162,12.3640677 121.368666,12.0858627 L118.787142,3.49471458 L116.150895,12.0772611 C116.073058,12.3622322 115.752534,12.5537365 115.50169,12.5537365 L114.364392,12.5548522 C114.155694,12.5548522 113.953795,12.4563108 113.850466,12.3040359 C113.781127,12.2021114 113.762093,12.0865466 113.796422,11.9787196 L117.404438,0.645716159 C117.473777,0.421478668 117.657661,0.15942582 117.948614,0.15942582 L119.32486,0.15942582 C119.577404,0.15942582 119.784402,0.341485933 119.879233,0.646702293 L123.378821,11.9750486 C123.413831,12.0826236 123.395136,12.1985843 123.326137,12.3007967 C123.222128,12.4544753 123.020569,12.5541324 122.811872,12.5541324" id="path56" fill="#100F0D"></path>
                            <path d="M125.428405,16.9103609 C124.694905,16.9103609 124.098385,16.2770398 124.098385,15.4977421 C124.098385,14.7186243 124.694905,14.0855551 125.428405,14.0855551 C126.162244,14.0855551 126.759445,14.7186243 126.759445,15.4977421 C126.759445,16.2770398 126.162244,16.9103609 125.428405,16.9103609" id="path58" fill="#100F0D"></path>
                            <path d="M125.97598,12.6231618 L124.883889,12.6243134 C124.586818,12.6243134 124.316259,12.3698261 124.316259,12.0909014 L124.310821,0.552789235 C124.310821,0.413186505 124.3788,0.274566671 124.496405,0.17165676 C124.604153,0.0781665874 124.741811,0.024180975 124.88015,0.024180975 L125.980059,0.0223533521 L125.980739,0.0223533521 C126.282228,0.0251650934 126.547008,0.272739084 126.547008,0.552083825 L126.547008,12.0909014 C126.547008,12.3744689 126.279849,12.6231618 125.97598,12.6231618" id="path60" fill="#100F0D"></path>
                            <path d="M136.182091,4.79894505 L135.270146,4.79527404 C135.015562,4.79527404 134.802106,4.63331774 134.707275,4.35201765 C134.374175,2.83029787 133.619602,2.04174705 132.475506,2.00687966 C130.247136,2.07703193 130.074128,5.36579209 130.074128,6.37211654 C130.074128,8.37886304 130.730471,10.5444347 132.56286,10.6016592 C133.668887,10.5656689 134.473425,9.72594354 134.714753,8.35762877 C134.760299,8.07841611 134.962878,7.86711713 135.239555,7.83040703 L136.215401,7.82029376 C136.507034,7.85376473 136.735785,8.08741368 136.733745,8.37717149 C136.388409,10.8499562 134.770156,12.4482849 132.607386,12.4482849 L132.532609,12.4461615 L132.447974,12.4482849 C129.30256,12.4482849 127.894363,9.33991171 127.894363,6.25950293 C127.894363,3.43524423 129.081626,0.137494058 132.430299,0.137494058 L132.590731,0.137494058 C134.699457,0.137494058 136.291199,1.70265015 136.747001,4.24037577 C136.757198,4.36130314 136.71777,4.48219452 136.636875,4.580484 C136.532186,4.70785363 136.365296,4.78951559 136.182091,4.79894505" id="path62" fill="#100F0D"></path>
                            <path d="M145.188703,7.6144653 L140.088877,7.6144653 C140.205462,9.13113204 141.134742,10.7020361 142.709489,10.7596926 C144.383825,10.7034398 145.150635,9.16895784 145.188703,7.6144653 Z M142.70609,12.477797 C139.262245,12.477797 137.693957,9.25414685 137.693957,6.25950293 C137.693957,2.52213102 139.64395,0.107549059 142.661563,0.107549059 C144.820254,0.107549059 146.465699,1.26219021 147.178125,3.2804572 C147.215174,3.39672382 147.202937,3.52268983 147.143455,3.63458724 C147.070037,3.77210613 146.936458,3.87262701 146.771607,3.91113661 L145.815815,4.10472837 C145.590802,4.14323798 145.279456,4.0205111 145.169329,3.75241944 C144.703329,2.63164947 143.856304,1.99535197 142.795483,1.96034782 C141.77273,1.99535197 140.834952,2.63811693 140.406681,3.59832702 C140.056246,4.38224949 140.004242,5.15632861 139.998804,5.94347221 L146.919463,5.9445879 C147.064939,5.9445879 147.215174,6.01250158 147.321562,6.12662678 C147.409935,6.22196506 147.457521,6.33936538 147.455865,6.45561401 C147.439846,9.36690442 146.183924,12.477797 142.70609,12.477797 L142.70609,12.477797 Z" id="path64" fill="#100F0D" fill-rule="nonzero"></path>
                            <path d="M156.125594,6.58550296 C155.477409,7.07828199 154.698364,7.24261364 153.920338,7.40712525 L152.425807,7.70051808 C151.354449,7.88719971 150.734136,8.19171354 150.734136,9.19368316 C150.734136,10.5599105 152.335394,10.6740717 152.64776,10.6829253 C153.722177,10.654241 154.529434,10.1471379 154.920657,9.25483066 C155.014469,9.04468337 155.221466,8.90367342 155.436282,8.90367342 C155.473331,8.90367342 155.510379,8.90802825 155.546409,8.91616205 L156.478408,9.13437117 C156.630683,9.16992957 156.77242,9.28085164 156.848557,9.42438091 C156.909059,9.53854211 156.922315,9.66267261 156.885946,9.7738826 C156.315937,11.5341676 154.866613,12.4644446 152.673592,12.4644446 C150.693688,12.4598018 148.577824,11.5272935 148.577824,8.92278426 C148.577824,7.14223673 149.633886,6.01178177 151.719159,5.56233505 L153.392816,5.22478214 C154.31122,5.03864037 155.250358,4.7075657 155.250358,3.66341546 C155.250358,2.11766137 153.551548,1.96006349 153.037963,1.94881653 C151.969664,1.9729984 150.602255,2.44017034 150.264737,3.6702896 C150.202875,3.92506486 149.902066,4.10400857 149.633207,4.0461002 L148.6594,3.83296571 C148.511884,3.79978266 148.377284,3.69800213 148.299108,3.56121024 C148.234187,3.4471966 148.215493,3.32080591 148.246084,3.20524469 C148.748113,1.29312026 150.491109,0.140024896 152.908122,0.120623611 L152.961826,0.120201805 C155.120517,0.120201805 157.427063,1.09883029 157.427063,3.84408671 C157.427063,4.96230497 156.952566,5.96171928 156.125594,6.58550296" id="path66" fill="#100F0D"></path>
                            <path d="M111.729504,34.8378793 L111.729504,37.4579723 C111.730864,37.8553051 112.015698,38.1219931 112.357635,38.1216332 L123.443402,38.1219931 C123.797235,38.1219931 124.082749,37.8488268 124.082749,37.4608515 L124.082749,35.2139778 C124.07935,34.8378793 123.779221,34.346108 123.247621,33.5651547 L117.505727,24.8840453 C119.636207,24.9375988 121.891768,24.599794 123.827826,23.447241 C124.265275,23.1874631 124.38152,22.8019711 124.417209,22.4256206 L124.417209,19.629895 C124.417209,19.2444031 124.018849,18.7988793 123.600774,19.0309807 C120.18854,20.9239978 115.660082,21.1306541 111.886197,19.0090626 C111.501093,18.7912853 111.097294,19.229935 111.097294,19.6154269 L111.097294,22.2719421 C111.097294,22.6957997 111.105452,23.4239193 111.50959,24.0724283 L118.163089,34.1778534 L112.370891,34.179257 C112.016378,34.179257 111.732903,34.4463769 111.729504,34.8378793" id="path68" fill="#100F0D"></path>
                            <path d="M71.2918632,18.4796094 L67.9183776,18.4796094 C67.597854,18.5018154 67.3412311,18.7578144 67.3157388,19.0842823 L67.3181181,37.4133443 C67.3181181,37.7800854 67.6097504,38.0730463 67.9686825,38.0730463 L71.109678,38.0748458 C71.438699,38.0554111 71.7017799,37.792682 71.7242132,37.4594119 L71.7242132,35.0645101 L71.7867544,35.0645101 C72.6045485,37.3798734 74.1473446,38.4581424 76.2247999,38.4581424 C78.3338657,38.4581424 79.6564081,37.3798734 80.600984,35.0645101 C81.4201377,37.3798734 83.2769994,38.4581424 85.2620025,38.4581424 C86.6786965,38.4581424 88.2194532,37.8419887 89.1640292,36.4542032 C90.2343674,34.9105797 90.0137737,32.6749709 90.0137737,30.707022 L90.0117343,19.1399592 C90.0117343,18.7742619 89.7204419,18.4796094 89.3618497,18.4796094 L85.9934626,18.4796094 C85.6542446,18.5018154 85.3874248,18.7883341 85.3874248,19.1382677 L85.3874248,28.8559335 C85.3874248,29.6268814 85.4496261,31.5561768 85.2925933,32.2883633 C85.0400493,33.5236939 84.2841166,33.8688408 83.3096296,33.8688408 C82.490136,33.8688408 81.6397117,33.2902969 81.2933558,32.3666421 C80.9473399,31.4394963 80.9792903,29.8968086 80.9792903,28.8559335 L80.9792903,19.1399592 C80.9792903,18.7742619 80.6879979,18.4796094 80.3287259,18.4796094 L76.9596589,18.4796094 C76.6221404,18.5018154 76.3546409,18.7883341 76.3546409,19.1382677 L76.3502222,28.8559335 C76.3502222,30.9003258 76.6659873,33.9074944 74.2737866,33.9074944 C71.8496355,33.9074944 71.9441271,30.9769491 71.9441271,28.8559335 L71.9420877,19.1399592 C71.9434473,18.7742619 71.651815,18.4796094 71.2918632,18.4796094" id="path70" fill="#100F0D"></path>
                            <path d="M133.65767,34.7182476 C131.169279,34.7182476 131.012569,31.1315994 131.012569,28.8937233 C131.012569,26.6571428 130.981315,21.8749332 133.62708,21.8749332 C136.240554,21.8749332 136.365976,25.7319405 136.365976,28.0843737 C136.365976,29.6268814 136.303775,31.477718 135.862927,32.9434945 C135.483941,34.2167949 134.729028,34.7182476 133.65767,34.7182476 L133.65767,34.7182476 Z M133.62708,38.4581424 C138.632415,38.4581424 141.34038,33.9074944 141.34038,28.1241789 C141.34038,22.5303524 138.34826,18.0945493 133.62708,18.0945493 C128.715217,18.0945493 126.038521,22.6464571 126.038521,28.3160792 C126.038521,34.0241749 128.745467,38.4581424 133.62708,38.4581424 L133.62708,38.4581424 Z" id="path72" fill="#100F0D"></path>
                            <path d="M147.832428,18.4796094 L144.471859,18.4796094 C144.13332,18.5018154 143.866501,18.7883341 143.866501,19.1382677 L143.861742,37.4756075 C143.889614,37.8095974 144.16969,38.0730463 144.508228,38.0730463 L147.637667,38.0748458 C147.932698,38.0575705 148.174705,37.8452278 148.236567,37.5612644 L148.236567,34.7566492 L148.300467,34.7566492 C149.243684,37.2639846 150.566906,38.4581424 152.895546,38.4581424 C154.407071,38.4581424 155.887666,37.8812181 156.831562,36.2994449 C157.712577,34.8343882 157.712577,32.3666421 157.712577,30.592177 L157.712577,19.0575775 C157.674849,18.7325132 157.401231,18.4796094 157.068131,18.4796094 L153.685468,18.4796094 C153.373442,18.5011316 153.122597,18.7451818 153.084869,19.0575775 L153.084869,29.0101519 C153.084869,31.0156027 153.305802,33.9475515 150.975123,33.9475515 C150.156989,33.9475515 149.402416,33.36764 149.02411,32.4816671 C148.551312,31.3635568 148.488771,30.2451946 148.488771,29.0101519 L148.488771,19.1399592 C148.482993,18.7742619 148.19136,18.4796094 147.832428,18.4796094" id="path74" fill="#100F0D"></path>
                            <path d="M106.292499,18.5260009 C106.068846,18.3147019 105.748662,18.3006297 105.496458,18.4428993 C104.376495,19.4287093 104.175275,19.88575 103.56312,20.823333 C101.711696,18.8265918 100.40071,18.2276774 98.0034113,18.2276774 C95.1628854,18.2276774 92.9549093,20.0833007 92.9549093,23.7939354 C92.9549093,26.6921254 94.4372036,28.6636014 96.551028,29.6305525 C98.3810377,30.4811109 100.937069,30.6360131 102.892841,30.8686904 L102.892841,31.3319214 C102.892841,32.181796 102.955722,33.1872567 102.481905,33.9212786 C102.073008,34.5783893 101.284105,34.8483165 100.589014,34.8483165 C99.3025007,34.8483165 98.1594244,34.1499969 97.877989,32.7033673 C97.8208862,32.382118 97.5979132,32.0629921 97.2923451,32.0475163 L94.0242278,32.4224631 C93.747551,32.4882533 93.4413031,32.7219383 93.5211791,33.1680019 C94.2723532,37.3679966 97.8535164,38.6370141 101.063171,38.6370141 C102.702838,38.6370141 104.849293,38.1734592 106.142944,36.8594538 C107.782951,35.2353201 107.624898,33.0710081 107.624898,30.7129244 L107.624898,25.1493297 C107.624898,23.4757813 108.281921,22.7412195 108.899515,21.8392309 C109.113311,21.5139147 109.161576,21.1284227 108.886939,20.8898431 C108.198306,20.278692 106.974334,19.1539955 106.301676,18.518119 L106.292499,18.5260009 L106.292499,18.5260009 Z M102.892841,27.2342471 C102.892841,25.8424306 102.924112,24.6817438 102.261311,23.4458373 C101.724952,22.4399448 100.872489,21.8220635 99.9258732,21.8220635 C98.6335818,21.8220635 97.8766294,22.86535 97.8766294,24.4122486 C97.8766294,27.45314 100.453734,28.0067786 102.892841,28.0067786 L102.892841,27.2342471 L102.892841,27.2342471 Z" id="path76" fill="#100F0D"></path>
                            <path d="M62.0806329,18.5260009 C61.85766,18.3147019 61.535097,18.3006297 61.2828928,18.4428993 C60.1629296,19.4287093 59.9623899,19.88575 59.3495541,20.823333 C57.4991505,18.8265918 56.1874849,18.2276774 53.7888262,18.2276774 C50.94932,18.2276774 48.7406641,20.0833007 48.7406641,23.7939354 C48.7406641,26.6921254 50.224318,28.6636014 52.3381424,29.6305525 C54.168492,30.4811109 56.7241836,30.6360131 58.6799555,30.8686904 L58.6799555,31.3319214 C58.6799555,32.181796 58.7435164,33.1872567 58.2696988,33.9212786 C57.8597821,34.5783893 57.0701995,34.8483165 56.3771479,34.8483165 C55.0906348,34.8483165 53.9461989,34.1499969 53.6657832,32.7033673 C53.6073208,32.382118 53.3853675,32.0629921 53.0801393,32.0475163 L49.8106624,32.4224631 C49.5346654,32.4882533 49.2280776,32.7219383 49.3072738,33.1680019 C50.0584479,37.3679966 53.639951,38.6370141 56.849266,38.6370141 C58.4909723,38.6370141 60.6357274,38.1734592 61.9297183,36.8594538 C63.570405,35.2353201 63.4120126,33.0710081 63.4120126,30.7129244 L63.4120126,25.1493297 C63.4120126,23.4757813 64.0693749,22.7412195 64.6852697,21.8392309 C64.9000851,21.5139147 64.9486905,21.1284227 64.6747329,20.8898431 C63.9854202,20.278692 62.7607684,19.1539955 62.0884506,18.518119 L62.0806329,18.5260009 Z M58.6799555,27.2342471 C58.6799555,25.8424306 58.7108862,24.6817438 58.0494451,23.4458373 C57.5134262,22.4399448 56.6602828,21.8220635 55.715027,21.8220635 C54.4200164,21.8220635 53.6634039,22.86535 53.6634039,24.4122486 C53.6634039,27.45314 56.2398292,28.0067786 58.6799555,28.0067786 L58.6799555,27.2342471 L58.6799555,27.2342471 Z" id="path78" fill="#100F0D"></path>
                        </g>
                    </g>
                </g>
            </g>
        </g>
    </g>
</svg>