<?xml version="1.0" encoding="UTF-8"?>
<svg width="158px" height="52px" viewBox="0 0 158 52" version="1.1" xmlns="http://www.w3.org/2000/svg" xmlns:xlink="http://www.w3.org/1999/xlink">
    <!-- Generator: sketchtool 56.3 (101010) - https://sketch.com -->
    <title>7DF70326-411D-413E-B94B-8111AB38315F</title>
    <desc>Created with sketchtool.</desc>
    <defs>
        <polygon id="path-1" points="0.130494218 0.0792371901 92 0.0792371901 92 26.9732455 0.130494218 26.9732455"></polygon>
    </defs>
    <g id="Actian---Signup" stroke="none" stroke-width="1" fill="none" fill-rule="evenodd">
        <g id="Login-/-Step-4" transform="translate(-532.000000, -457.000000)">
            <g id="Group-6" transform="translate(314.000000, 221.000000)">
                <g id="Azure_logo" transform="translate(218.000000, 236.000000)">
                    <polygon id="Fill-1" fill="#0089D6" points="28.0779486 27.7869004 43.3556607 47.8342311 15 51.4789162 59 52 36.7555818 8"></polygon>
                    <polygon id="Fill-2" fill="#0089D6" points="14.9120376 18.8260855 0 47 12.6937557 45.5715287 35 0"></polygon>
                    <g id="Group-5" transform="translate(66.000000, 20.000000)">
                        <mask id="mask-2" fill="white">
                            <use xlink:href="#path-1"></use>
                        </mask>
                        <g id="Clip-4"></g>
                        <path d="M84.6584,9.74501405 C86.0435221,9.74501405 87.1232908,10.2307909 87.8965242,11.2021215 C88.6815777,12.1736752 89.0795221,13.5321545 89.0911452,15.2784521 L79.5158561,15.2784521 C79.7351195,13.6305595 80.3123358,12.2964025 81.2475049,11.2755347 C82.1824771,10.2548901 83.3193764,9.74501405 84.6584,9.74501405 L84.6584,9.74501405 Z M43.0610039,7.64191488 L43.0610039,18.9308157 C43.0610039,24.2924355 45.1738518,26.9732455 49.3987597,26.9732455 C51.8689696,26.9732455 53.6926184,25.8294273 54.8701002,23.5422372 L54.939051,23.5422372 L54.939051,26.5305347 L57.7790338,26.5305347 L57.7790338,7.64191488 L54.939051,7.64191488 L54.939051,18.5251463 C54.939051,20.2837165 54.4890981,21.7100306 53.5887983,22.8043116 C52.6999246,23.886543 51.5630253,24.4276587 50.1779032,24.4276587 C47.3148711,24.4276587 45.8836505,22.4359066 45.8836505,18.4515099 L45.8836505,7.64191488 L43.0610039,7.64191488 Z M25.1109567,7.64191488 L25.1109567,10.2243198 L34.6167041,10.2243198 L24.123976,25.5902207 L24.123976,26.5305347 L38.6857833,26.5305347 L38.6857833,23.9481298 L28.2968754,23.9481298 L38.7898004,8.50903884 L38.7898004,7.64191488 L25.1109567,7.64191488 Z M72.0236677,7.31010496 C70.9963015,7.31010496 70.0672394,7.68542727 69.2360874,8.43540248 C68.4049353,9.17310496 67.7875306,10.2057992 67.3836762,11.5341545 L67.3141345,11.5341545 L67.3141345,7.64191488 L64.4747426,7.64191488 L64.4747426,26.5305347 L67.3141345,26.5305347 L67.3141345,16.9020223 C67.3141345,14.7991463 67.7183829,13.138981 68.5262887,11.9215264 C69.3458176,10.7040719 70.3617576,10.0951215 71.5737148,10.0951215 C72.5086869,10.0951215 73.2245927,10.2981793 73.7208411,10.7038488 L73.7208411,7.56783223 C73.3284128,7.39579091 72.7624257,7.31010496 72.0236677,7.31010496 L72.0236677,7.31010496 Z M84.7102116,7.19942727 C82.3899203,7.19942727 80.4449182,8.1274686 78.8752051,9.9844438 C77.3167212,11.8291463 76.5377747,14.2214355 76.5377747,17.1601959 C76.5377747,20.2716669 77.2534835,22.6876091 78.6849011,24.409138 C80.1161216,26.1183942 82.084173,26.9732455 84.5888582,26.9732455 C87.1514621,26.9732455 89.2121045,26.3709893 90.7703914,25.1658074 L90.7703914,22.3250058 C89.0966612,23.7269975 87.2615863,24.4276587 85.2645756,24.4276587 C83.4870253,24.4276587 82.0902801,23.8555264 81.074537,22.7119314 C80.058597,21.5683364 79.5274792,19.9452124 79.4813807,17.8423364 L92.0000788,17.8423364 L92.0000788,16.2562537 C92.0000788,13.4154521 91.3651409,11.1960967 90.0954621,9.59751818 C88.8255863,7.99893967 87.0305028,7.19942727 84.7102116,7.19942727 L84.7102116,7.19942727 Z M11.0737662,3.2884438 L11.1427169,3.2884438 C11.2697833,4.10022893 11.3966527,4.69065868 11.5237191,5.05950992 L15.4196334,16.3301132 L6.81398887,16.3301132 L10.6756248,5.05950992 C10.8257405,4.62929504 10.9583229,4.03864215 11.0737662,3.2884438 L11.0737662,3.2884438 Z M9.65397173,0.0792371901 L0.130494218,26.5305347 L3.36861842,26.5305347 L5.84493533,19.1151298 L16.3721388,19.1151298 L19.0040874,26.5305347 L22.2244814,26.5305347 L12.6665285,0.0792371901 L9.65397173,0.0792371901 Z" id="Fill-3" fill="#0089D6" mask="url(#mask-2)"></path>
                    </g>
                </g>
            </g>
        </g>
    </g>
</svg>