<?xml version="1.0" encoding="UTF-8"?>
<svg width="630px" height="480px" viewBox="0 0 630 480" version="1.1" xmlns="http://www.w3.org/2000/svg" xmlns:xlink="http://www.w3.org/1999/xlink">
    <!-- Generator: sketchtool 56.3 (101010) - https://sketch.com -->
    <title>D1C16B07-3A9A-4388-9068-0201BD5E5015</title>
    <desc>Created with sketchtool.</desc>
    <defs>
        <linearGradient x1="49.9704824%" y1="100.003133%" x2="49.9704824%" y2="-0.0043332453%" id="linearGradient-1">
            <stop stop-color="#808080" stop-opacity="0.25" offset="0%"></stop>
            <stop stop-color="#808080" stop-opacity="0.12" offset="54%"></stop>
            <stop stop-color="#808080" stop-opacity="0.1" offset="100%"></stop>
        </linearGradient>
        <linearGradient x1="50%" y1="0%" x2="50%" y2="100%" id="linearGradient-2">
            <stop stop-color="#20191D" offset="0%"></stop>
            <stop stop-color="#463740" offset="100%"></stop>
        </linearGradient>
    </defs>
    <g id="Actian---Signup" stroke="none" stroke-width="1" fill="none" fill-rule="evenodd">
        <g id="Login-/-Step-4" transform="translate(-650.000000, -420.000000)">
            <g id="Illustration-girl" transform="translate(650.000000, 420.000000)">
                <path d="M612.482426,627.195791 C611.01695,628.484245 609.515326,629.737774 608.002602,630.936273 C607.951028,630.978231 607.89724,631.022425 607.777577,631.12087 C607.650229,631.225453 607.558903,631.299458 607.462466,631.375471 C607.341969,631.470449 607.228463,631.556428 607.19087,631.581151 C601.750199,635.802 596.038242,639.66104 590.10317,643.126723 C583.804837,646.84901 576.970458,650.432955 569.09463,654.210315 C558.341775,659.41298 547.327983,664.058126 536.101398,668.125701 L535.582469,668.314737 C530.63358,670.078925 525.628957,671.707038 520.548425,673.20494 L520.472879,673.226482 C516.937065,674.258836 513.376908,675.212322 509.796134,676.086027 L509.30085,676.207655 C504.018939,677.482203 498.684093,678.565821 493.282086,679.460837 L492.050298,679.657574 C488.107338,680.278332 484.137275,680.784109 480.135638,681.17535 C459.944148,683.11237 438.763574,682.086818 412.852226,678.57528 C366.192959,672.246105 322.453,660.470793 283.591283,643.262191 C268.206128,636.48206 253.316557,628.62893 239.029519,619.758911 C237.002826,618.496521 234.989044,617.208388 232.967101,615.880521 C232.881329,615.822948 232.804503,615.771051 232.648018,615.665173 C232.570961,615.613076 232.570961,615.613076 232.495535,615.562223 C232.323265,615.446204 232.192296,615.359412 232.034307,615.257252 C208.951096,599.826572 193.301477,583.702882 185.664767,565.026577 C175.481062,540.10417 183.41068,511.057402 206.130827,497.769559 C213.249547,493.634363 221.141007,491.032919 232.888682,488.40472 L233.832279,488.194565 C235.107003,487.914406 235.890413,487.746955 238.489097,487.195728 L238.495874,487.194282 C238.973023,487.093162 238.973023,487.093162 239.450201,486.992107 C242.574849,486.330435 243.122894,486.214155 244.471244,485.925583 C248.497846,485.063817 251.636473,484.366275 254.659782,483.65111 C266.179404,480.939169 275.117711,478.152566 283.203377,474.510094 C283.857969,474.218554 284.509874,473.917357 285.16548,473.603455 C292.812084,469.968706 300.071121,465.087647 305.325186,459.788095 C310.453215,454.604233 313.454561,449.238368 313.960303,443.949474 C314.111929,442.38757 314.042129,440.812077 313.752912,439.269384 C312.8651,434.530386 312.431982,432.06728 312.03157,429.297361 C311.027623,422.189419 310.969785,416.47923 312.09813,411.081359 C313.452918,404.594946 316.53986,398.805522 321.729051,393.443645 C322.547373,392.598345 323.423351,391.759739 324.371542,390.914649 C328.700449,387.116362 333.597375,384.01929 338.84499,381.75338 C339.512391,381.451388 340.183233,381.168849 340.82797,380.917532 C353.983154,375.591675 370.229483,373.732155 388.61633,374.645052 C403.504174,375.409424 418.297518,377.465215 432.818387,380.786705 C433.919116,381.033137 435.061981,381.300662 436.266807,381.592741 C448.614472,384.582211 460.764125,388.33722 472.640024,392.833995 C504.570478,404.841761 536.267403,422.211538 570.222746,445.28883 L571.657152,446.266451 C572.36207,446.748763 573.066977,447.233922 573.765517,447.717541 C575.209361,448.710541 576.64467,449.709264 578.060773,450.706242 C579.123404,451.446085 580.183171,452.191635 581.238951,452.942095 L583.512089,454.556036 L584.925714,455.572486 C593.867554,462.030481 600.928593,467.530266 607.315111,473.154018 L608.082694,473.836314 C617.420685,482.147126 624.965287,490.449176 630.894409,499.240633 C657.796724,539.145806 649.82866,594.369254 612.482426,627.195791 Z" id="Path" stroke="#FFFFFF" stroke-width="5" fill="#4D7CFE" opacity="0.1" transform="translate(414.063713, 528.278503) rotate(157.000000) translate(-414.063713, -528.278503) "></path>
                <g id="Illustration">
                    <g id="undraw_preferences_uuo2">
                        <g id="Group" opacity="0.7" transform="translate(375.804722, 120.309717)" fill="#FF6584">
                            <path d="M12.596873,0.528293042 C5.67278401,0.528293042 0.05970082,5.92722987 0.05970082,12.587156 C0.05970082,19.2470821 5.67278401,24.6460189 12.596873,24.6460189 C19.520962,24.6460189 25.1340452,19.2470821 25.1340452,12.587156 C25.1340452,5.92722987 19.520962,0.528293042 12.596873,0.528293042 L12.596873,0.528293042 Z M12.596873,22.3490926 C6.99165811,22.3490926 2.44770785,17.9785247 2.44770785,12.587156 C2.44514912,11.4957687 2.6369764,10.4120221 3.01489141,9.38294382 C3.01489141,9.38294382 3.01489141,9.38294382 3.01489141,9.38294382 C4.70471633,4.67729588 9.80536394,1.94861727 14.8530431,3.04992226 C19.9007222,4.15122725 23.278123,8.72965041 22.6916914,13.6760372 C22.1052597,18.622424 17.7428923,22.3519193 12.5670226,22.3318657 L12.596873,22.3490926 Z" id="Shape" fill-rule="nonzero"></path>
                            <path d="M16.4416058,17.8241479 L18.0177075,16.3024342 C18.149685,16.1763145 18.2239015,16.0047649 18.2239015,15.825822 C18.2239015,15.6468791 18.149685,15.4753295 18.0177075,15.3492098 L15.1699784,12.6043829 L18.0177075,9.86529833 C18.149685,9.7391786 18.2239015,9.56762902 18.2239015,9.38868613 C18.2239015,9.20974324 18.149685,9.03819367 18.0177075,8.91207393 L16.4416058,7.39036028 C16.3094625,7.26307107 16.1301207,7.19154497 15.943104,7.19154497 C15.7560873,7.19154497 15.5767455,7.26307107 15.4446021,7.39036028 L12.596873,10.1294449 L9.74914391,7.39036028 C9.6180217,7.26341788 9.43966769,7.19203282 9.25362711,7.19203282 C9.06758652,7.19203282 8.88923252,7.26341788 8.7581103,7.39036028 L7.17603857,8.94078551 C7.04406106,9.06690524 6.96984455,9.23845482 6.96984455,9.41739771 C6.96984455,9.5963406 7.04406106,9.76789018 7.17603857,9.89400991 L10.0237677,12.6330945 L7.17603857,15.3779214 C7.04406106,15.5040411 6.96984455,15.6755907 6.96984455,15.8545336 C6.96984455,16.0334765 7.04406106,16.205026 7.17603857,16.3311458 L8.7581103,17.8528594 C8.88923252,17.9798018 9.06758652,18.0511869 9.25362711,18.0511869 C9.43966769,18.0511869 9.6180217,17.9798018 9.74914391,17.8528594 L12.596873,15.1080325 L15.4446021,17.8528594 C15.7304278,18.1039286 16.1719086,18.0912149 16.4416058,17.8241479 L16.4416058,17.8241479 Z" id="Path"></path>
                        </g>
                        <path d="M441.111449,215.385237 C441.111449,215.385237 424.329549,185.881219 427.165337,181.080644 C430.001126,176.280068 432.072745,169.331866 432.072745,169.331866 C432.072745,169.331866 438.26969,165.254822 438.26969,163.58955 C438.26969,161.924278 443.177097,158.071185 445.762143,156.394428 C448.347188,154.717672 447.051681,146.799019 445.762143,145.840052 C444.472605,144.881086 442.424867,141.521831 442.424867,141.521831 C442.424867,141.521831 444.215892,136.726997 442.424867,135.285676 C440.633842,133.844355 442.687551,132.414518 442.424867,130.967455 C442.162183,129.520391 442.424867,124.254688 442.424867,124.254688 C440.329368,121.452438 438.007006,120.14319 435.821956,119.660835 L435.630914,118.902849 L434.526449,114.429585 C434.526449,114.429585 439.899522,104.524091 431.183203,99.3387799 C430.566665,98.9675303 429.922083,98.6412197 429.254866,98.3625862 C429.254866,98.3625862 429.254866,98.121409 429.207106,97.7137045 C429.087704,96.2321871 428.723529,92.5169089 427.941448,90.1281055 C427.487722,88.7384651 426.896684,87.8024677 426.150424,88.0149334 C425.967167,88.065985 425.799298,88.1585319 425.660877,88.2848222 C425.305677,88.5943978 424.994533,88.9477332 424.735514,89.335666 L424.735514,89.335666 C424.725176,89.3587304 424.711067,89.3800552 424.693724,89.3988314 L424.693724,89.3988314 C423.704081,91.1074011 423.010427,92.9596299 422.640015,94.8827429 C422.375279,96.0197699 422.175973,97.1699815 422.043007,98.3281323 C421.665433,99.0178657 421.332466,99.7293506 421.046003,100.458531 C419.989299,103.094254 418.753492,107.659395 421.004213,111.035877 C422.914639,113.907035 425.487744,117.852006 427.35638,120.723163 L427.416081,120.815041 L427.529512,120.993052 L427.3325,121.113641 L427.36235,121.555799 L427.535483,123.973314 L429.010093,144.858116 C428.575782,144.737027 428.132801,144.646821 427.684735,144.588227 C427.046352,144.498408 426.401498,144.458082 425.756398,144.467639 C424.496711,139.707259 421.040033,135.279934 420.413175,130.307088 C420.349647,129.809778 420.315761,129.309379 420.311683,128.808344 C420.365414,125.678782 421.177345,122.537735 421.111674,119.413915 C421.111674,118.839684 421.111674,118.265452 421.051974,117.691221 L421.051974,117.691221 C421.051974,117.536178 421.051974,117.375393 421.004213,117.214609 C420.340863,112.600608 417.354485,108.598092 413.022213,106.516674 C411.523723,105.798885 409.89986,105.322273 408.44316,104.535576 C405.076034,102.721004 402.920834,99.4478839 399.864152,97.2026385 C397.589551,95.5316246 394.192575,94.6358233 391.65529,95.4799437 C390.310142,95.6749629 388.976885,95.9394922 387.661305,96.2723833 L387.661305,96.2723833 C384.454411,97.0795298 381.378665,98.3084937 378.521109,99.9244961 C378.133054,100.148446 377.744999,100.378139 377.374854,100.642286 C376.566662,101.149569 375.926488,101.868942 375.530098,102.715262 C375.273498,103.432441 375.175881,104.193358 375.243534,104.949022 C375.243534,105.494542 375.243534,106.051547 375.279355,106.597067 C375.112192,115.784772 364.819771,122.893759 363.972019,131.863256 C363.972019,132.075722 363.936199,132.288187 363.924259,132.500653 C363.924259,132.563818 363.924259,132.626984 363.924259,132.695892 C363.924259,132.954296 363.924259,133.218442 363.924259,133.482589 L363.924259,133.482589 C363.924259,133.603178 363.924259,133.718024 363.924259,133.838612 C363.924259,133.959201 363.924259,134.07979 363.924259,134.200378 C364.073511,138.133865 366.19886,141.797462 366.586915,145.713721 C366.622736,146.064003 366.640646,146.408541 366.646616,146.758823 C366.580615,148.558035 366.22412,150.336432 365.589912,152.030269 C364.296163,152.361916 363.05067,152.848051 361.882491,153.477332 C358.754168,155.412492 353.10647,158.75452 351.046792,165.145718 C350.51717,166.80499 350.253451,168.532187 350.264711,170.267863 C350.229889,176.401088 349.646651,182.520066 348.521447,188.557139 C348.261087,190.077989 347.894085,191.580162 347.422952,193.053372 C347.378625,193.196661 347.366416,193.347366 347.387132,193.49553 L346.145355,208.999782 L345.924462,211.727382 L345.614017,215.609188 C345.614017,215.609188 345.703569,215.844623 345.83491,216.240842 C346.029501,216.829692 346.192893,217.427662 346.324457,218.032445 C346.671602,219.346489 346.726529,220.716206 346.485649,222.052066 C346.362959,222.619652 346.058075,223.135856 345.614017,223.527841 C345.575827,223.560227 345.541759,223.59685 345.512526,223.636945 C345.160291,224.113557 344.843877,225.531909 344.569253,227.587658 C344.461791,228.391582 344.3603,229.310353 344.258809,230.263577 C343.6618,236.379144 343.291655,245.532395 343.064792,253.100767 C342.849869,260.565777 342.772258,266.463135 342.772258,266.463135 C343.777521,267.087073 344.85302,267.599491 345.978192,267.990591 C345.894611,268.191572 345.80506,268.398296 345.721479,268.616504 C344.706486,271.150241 344.051823,273.804196 343.775232,276.506445 C343.273745,282.151142 344.915518,288.42175 353.1005,291.648932 C353.623451,291.858059 354.159882,292.034523 354.706452,292.177225 C356.497477,292.63661 357.816865,292.510279 358.789988,291.936048 C358.789988,292.274844 358.831779,292.602156 358.849689,292.929468 C358.93327,294.330593 359.004911,295.61113 359.040732,296.684943 C359.297445,303.403452 361.028769,315.15223 361.028769,315.15223 C361.028769,315.15223 361.625777,319.952806 361.10638,321.388385 C360.586983,322.823964 361.10638,328.583506 361.10638,328.583506 C361.10638,328.583506 362.897405,331.454664 361.10638,332.901728 C359.315356,334.348791 358.784018,341.515201 359.315356,342.497137 C359.321817,342.53324 359.321817,342.570139 359.315356,342.606241 C359.709381,344.989302 357.48254,380.396421 357.48254,380.396421 C357.48254,380.396421 355.375101,385.817167 353.697508,391.444636 C352.061706,396.922805 350.831869,402.596213 352.34827,403.658541 C353.1005,404.186835 354.849734,404.583054 357.070605,404.887397 C357.070605,405.122832 357.034784,405.358267 357.010904,405.599444 C356.795981,408.131805 356.455686,410.859405 355.966139,411.548483 C355.2557,412.524677 354.509439,420.093049 354.175115,424.181578 L354.139294,424.635221 C353.374508,426.379626 352.732277,428.171425 352.216928,429.998543 C352.216928,429.998543 346.50356,443.780101 348.437866,447.357564 C348.618009,447.679006 348.858948,447.965281 349.148306,448.201684 L349.148306,448.201684 C349.205587,448.259796 349.267463,448.313552 349.333378,448.362469 C352.085586,450.481384 358.981031,450.923542 361.482495,451.021161 L361.386974,454.432097 L361.386974,454.558428 L364.640669,454.558428 L364.640669,454.472293 C364.640669,454.041619 364.71231,452.066263 364.819771,449.424797 C364.819771,448.953928 364.855592,448.460088 364.879472,447.954765 C364.879472,447.558545 364.921263,447.156583 364.939173,446.743136 C365.896989,444.295253 366.376666,441.698304 366.354082,439.082887 C366.357518,436.079303 366.779172,433.089692 367.607799,430.193782 C368.017018,428.702116 368.570676,427.25062 369.261512,425.858334 C369.261512,425.858334 370.276426,420.69025 368.861517,417.032395 C368.591763,416.306086 368.187201,415.632896 367.6675,415.045553 C367.6675,414.924965 367.6675,414.804376 367.6675,414.678045 C367.6675,414.551714 367.6675,414.402414 367.6675,414.258856 C367.6675,414.115298 367.6675,414.023421 367.6675,413.89709 C367.635653,411.423461 367.891975,408.954183 368.431671,406.535442 C368.428864,406.497207 368.428864,406.45883 368.431671,406.420595 C368.479431,406.219614 368.533162,406.030118 368.586893,405.846364 L368.622713,405.720033 L369.679418,405.754487 C372.921172,405.840621 375.303235,405.840621 375.303235,405.840621 C375.303235,405.840621 377.888281,393.127135 377.631567,387.614511 C377.631567,387.373334 377.631567,387.120672 377.631567,386.86801 C377.542016,381.389841 379.195729,373.942058 379.195729,373.942058 L381.261377,354.515804 C381.261377,354.515804 380.228553,351.150807 381.261377,348.773488 C381.900176,347.291971 383.219564,344.541402 384.138956,342.646437 C384.568802,341.767863 384.909097,341.078785 385.052379,340.780185 L385.13596,340.6194 C384.810385,340.512069 384.501183,340.363367 384.216568,340.177242 L384.216568,340.177242 C383.374786,339.637464 382.622556,338.580878 385.14193,337.02471 C389.016513,334.624422 387.726976,328.629445 387.726976,328.629445 C387.726976,328.629445 386.58669,326.470334 387.929959,324.552401 C389.273227,322.634467 387.929959,315.439346 387.929959,315.439346 C389.02582,313.52846 389.902596,311.508714 390.544854,309.415657 C391.506038,306.544499 393.935861,292.504537 395.082117,285.734347 C395.458232,283.512071 395.679125,282.076492 395.679125,282.076492 L395.714945,282.426773 L395.750766,282.805766 L395.750766,282.805766 L396.07315,286.004236 L396.114941,286.429167 L396.711949,292.475825 C396.711949,292.475825 397.905966,308.370555 397.159705,314.600968 C397.159705,314.641164 397.159705,314.68136 397.159705,314.715814 C397.101495,315.361257 396.954957,315.996484 396.723889,316.605036 C395.35077,319.59104 395.601514,331.454664 395.673155,334.078902 C395.673155,334.291368 395.673155,334.463638 395.673155,334.607195 C395.673155,334.750753 394.700032,336.95006 394.944805,338.66127 L394.944805,338.66127 C394.994399,339.094913 395.156586,339.509594 395.416441,339.867157 C395.773987,340.425646 395.935165,341.07999 395.876138,341.733409 L395.876138,341.790832 C395.869827,342.067612 395.845902,342.34376 395.804497,342.617726 C395.623417,343.729143 395.319201,344.818731 394.897044,345.867877 C394.897044,345.867877 393.511985,349.370689 394.037352,351.202488 C394.037352,351.202488 394.037352,351.202488 394.037352,351.202488 C394.100463,351.439979 394.216585,351.661403 394.377647,351.851369 C394.498834,352.062928 394.566339,352.299035 394.57466,352.540447 C394.571848,352.561416 394.571848,352.582644 394.57466,352.603613 C395.058236,356.468191 393.810489,373.528611 393.070199,382.865616 C392.771695,386.552183 392.556772,389.032863 392.556772,389.032863 L390.544854,409.441053 L390.747837,409.578869 C390.98067,409.739654 391.416486,410.015285 392.001554,410.348339 C392.001554,410.348339 392.001554,410.377051 392.001554,410.394278 L391.912003,411.008706 C391.619469,412.972578 391.225444,415.258019 390.795598,417.003683 C390.759777,417.135756 390.729927,417.262087 390.694107,417.382676 C389.910644,417.514301 389.164383,417.801809 388.503086,418.226796 C384.156867,425.651611 386.079233,431.537484 388.503086,433.248694 C389.189646,433.731049 389.655312,435.080493 389.965757,436.757249 L390.562765,444.159094 C390.562765,444.457694 390.562765,444.733326 390.562765,445.008957 C390.563575,445.239131 390.601849,445.467764 390.676196,445.68655 L390.861269,447.931795 L391.112012,451.055615 L393.094079,451.055615 L393.094079,447.277171 L393.201541,447.277171 C396.329864,447.380533 401.374583,447.506864 403.571573,447.340337 L403.631274,447.340337 C403.864107,447.340337 404.06112,447.300141 404.228282,447.277171 C404.347116,447.26001 404.463373,447.229163 404.574547,447.185294 C405.738713,446.645517 408.640173,438.732606 406.025277,436.935261 C403.410381,435.137916 402.831283,430.044482 402.831283,430.044482 C402.60442,429.378373 402.377557,428.746719 402.144724,428.143776 C402.144724,428.011702 402.144724,427.885371 402.144724,427.753298 C402.073083,425.289845 402.102933,422.619668 402.455168,421.172604 C402.849193,419.581983 403.052176,416.239955 403.135757,413.311374 C403.135757,413.087424 403.135757,412.869216 403.135757,412.651008 L403.135757,412.5821 C403.589005,412.471908 404.033831,412.331847 404.467086,412.162911 L404.562607,412.122715 C405.362298,411.800721 406.111713,411.373638 406.789448,410.853663 L414.025187,379.678631 L414.795328,376.05523 L419.159458,355.49774 C419.159458,355.49774 417.613206,348.302618 419.159458,347.108217 C419.756466,346.671801 419.881837,344.81129 419.846017,342.657922 C419.786316,338.890963 419.159458,334.153553 419.159458,334.153553 C419.159458,334.153553 421.225106,331.035475 422.2639,329.117542 C423.302694,327.199608 422.2639,322.163597 422.2639,322.163597 L424.323578,310.678966 C424.323578,310.678966 426.65191,296.92612 432.335428,285.441489 C436.514486,276.971573 433.851829,254.09993 431.141412,241.92622 C431.069771,241.610393 430.99813,241.300308 430.926489,241.001708 L430.926489,240.955769 C432.204087,240.347084 433.768248,239.612067 435.439871,238.842597 L436.0727,238.555481 C438.192079,237.596514 440.43683,236.608836 442.448747,235.787685 L442.580089,235.736004 C444.028188,235.128568 445.508873,234.595693 447.01586,234.13964 C447.459844,234.009049 447.915556,233.918693 448.377039,233.869752 C451.959088,233.622832 441.111449,215.385237 441.111449,215.385237 Z M360.330269,254.432984 L361.404884,254.432984 C361.279512,254.656934 361.160111,254.886627 361.040709,255.11632 C360.969068,255.254135 360.897427,255.386208 360.831756,255.524024 C360.437731,256.310721 360.073556,257.114645 359.775052,257.901343 C359.894453,257.05148 360.043706,256.126967 360.210868,255.139289 C360.252658,254.875142 360.288479,254.64545 360.330269,254.432984 Z M357.42881,269.363005 C357.431451,269.336267 357.431451,269.30935 357.42881,269.282612 L357.339258,269.012723 C357.273587,268.828969 357.213887,268.645215 357.154186,268.467204 C357.524331,268.356185 357.900446,268.235597 358.282531,268.105438 L358.360142,268.076726 C358.360142,268.139892 358.360142,268.203057 358.360142,268.266222 C358.360142,268.536111 358.294471,268.806 358.258651,269.070147 L358.258651,269.070147 C358.261881,269.10453 358.261881,269.139124 358.258651,269.173508 C358.258651,269.391716 358.20492,269.59844 358.18104,269.805163 C358.127309,270.21861 358.073578,270.620572 358.025818,271.005307 C357.912386,270.643541 357.798955,270.287518 357.679553,269.937236 C357.560151,269.770709 357.49448,269.57547 357.42881,269.363005 Z" id="Shape" fill="url(#linearGradient-1)" fill-rule="nonzero"></path>
                        <path d="M434.932414,123.358886 L428.484726,125.558193 L426.144453,121.825688 C424.353429,118.95453 421.869875,115.026786 420.03706,112.172855 C416.801275,107.148329 421.034063,99.4995647 421.034063,99.4995647 C421.034063,99.4995647 421.774353,91.8508002 424.508651,89.4619969 C427.242949,87.0731936 427.989209,99.4995647 427.989209,99.4995647 C438.920429,104.282914 433.063778,115.514883 433.063778,115.514883 L434.126453,119.976662 L434.932414,123.358886 Z" id="Path" fill="#ED9F42"></path>
                        <path d="M434.932414,123.358886 L428.484726,125.558193 L426.144453,121.825688 L426.144453,121.498376 C426.144453,121.498376 429.839934,119.057892 434.150333,119.976662 L434.932414,123.358886 Z" id="Path" fill="#000000" opacity="0.1"></path>
                        <path d="M424.508651,148.510229 L427.738465,145.903218 L426.120573,122.233392 C426.120573,122.233392 434.448838,116.737996 440.663693,125.345728 C440.663693,125.345728 440.412949,130.605689 440.663693,132.041268 C440.914436,133.476847 438.926399,134.912426 440.663693,136.342262 C442.400987,137.772099 440.663693,142.555448 440.663693,142.555448 C440.663693,142.555448 442.62785,145.903218 443.869627,146.862184 C445.111404,147.821151 446.359151,155.705351 443.869627,157.382107 C441.380103,159.058863 436.663738,162.877503 436.663738,164.554259 C436.663738,166.231015 430.693656,170.296575 430.693656,170.296575 L425.469834,163.601035 L424.508651,148.510229 Z" id="Path" fill="#5A5773"></path>
                        <path d="M354.658692,292.200194 C342.611066,287.284772 345.285663,275.27759 347.554294,269.230931 C348.009105,268.006359 348.541438,266.809719 349.148306,265.647727 L355.918379,261.71424 C355.918379,261.71424 357.297468,265.096464 358.772078,269.638636 C362.180995,280.152816 366.115279,296.874439 354.658692,292.200194 Z" id="Path" fill="#DF8216" opacity="0.731515067"></path>
                        <path d="M371.219699,401.757835 C370.402894,403.28417 369.800613,404.90815 369.428674,406.587122 C368.842303,409.293914 368.591799,412.058051 368.682414,414.821603 C368.730175,416.733794 368.897337,417.985619 368.897337,417.985619 L355.476593,426.863239 C355.476593,426.863239 355.554204,425.82388 355.685546,424.296424 C356.03181,420.230865 356.75419,412.685462 357.43478,411.709268 C357.906416,411.025932 358.234771,408.304075 358.443724,405.783198 C358.652676,403.262322 358.736258,401.040046 358.736258,401.040046 C358.736258,401.040046 374.855479,395.211595 371.219699,401.757835 Z" id="Path" fill="#ED9F42"></path>
                        <path d="M402.914864,408.126063 C402.914864,408.126063 402.914864,410.595259 402.819343,413.466417 C402.723822,416.337574 402.544719,419.719798 402.168604,421.304678 C401.822339,422.745999 401.798459,425.410433 401.86413,427.862402 C401.953681,430.73356 402.168604,433.317602 402.168604,433.317602 C402.168604,433.317602 388.437416,420.856777 389.864265,419.869099 C390.24038,419.604952 390.610525,418.542624 390.95082,417.130014 C391.368726,415.407319 391.744841,413.110393 392.025435,411.152263 C392.359759,408.855337 392.568712,406.960373 392.568712,406.960373 L402.914864,408.126063 Z" id="Path" fill="#ED9F42"></path>
                        <path d="M371.219699,401.757835 C370.402894,403.28417 369.800613,404.90815 369.428674,406.587122 C365.755188,406.499102 362.088767,406.230778 358.443724,405.783198 C358.646706,403.314003 358.736258,401.040046 358.736258,401.040046 C358.736258,401.040046 374.855479,395.211595 371.219699,401.757835 Z" id="Path" fill="#000000" opacity="0.1"></path>
                        <path d="M402.914864,408.126063 C402.914864,408.126063 402.914864,410.595259 402.819343,413.466417 C398.544764,414.51726 394.150784,412.415573 392.025435,411.16949 C392.359759,408.872564 392.568712,406.9776 392.568712,406.9776 L402.914864,408.126063 Z" id="Path" fill="#000000" opacity="0.1"></path>
                        <path d="M430.96828,286.01572 C425.499685,297.500352 423.260904,311.115382 423.260904,311.115382 L421.278837,322.600013 C421.278837,322.600013 422.26987,327.618797 421.278837,329.530988 C420.287803,331.44318 418.293796,334.549772 418.293796,334.549772 C418.293796,334.549772 419.786316,346.269839 418.293796,347.458498 C416.801275,348.647157 418.293796,355.830794 418.293796,355.830794 L413.320717,379.977232 L406.359602,411.054644 C399.64923,416.314605 390.717987,409.619065 390.717987,409.619065 L392.688114,389.302752 C392.688114,389.302752 395.673155,353.700395 394.431378,352.241847 C393.189601,350.783299 394.926895,346.269839 394.926895,346.269839 C394.926895,346.269839 396.670159,341.963102 395.428382,340.286346 C394.186604,338.609589 395.673155,335.026385 395.673155,335.026385 C395.673155,335.026385 395.177638,320.446645 396.670159,317.098875 C398.162679,313.751105 396.670159,293.038572 396.670159,293.038572 L396.07315,286.589952 L395.732856,283.018231 L395.697035,282.66795 C395.697035,282.66795 395.470172,284.103529 395.100027,286.320063 C394.001532,293.067284 391.66126,307.049823 390.735897,309.926723 C390.095332,311.991191 389.230889,313.985163 388.156822,315.875762 C388.156822,315.875762 389.446359,323.047914 388.156822,324.960105 C386.867284,326.872296 387.959809,329.025665 387.959809,329.025665 C387.959809,329.025665 389.201586,334.997673 385.470285,337.392219 C381.738984,339.786764 385.470285,340.975424 385.470285,340.975424 C385.470285,340.975424 382.735987,346.717739 381.744954,349.106543 C380.75392,351.495346 381.744954,354.848858 381.744954,354.848858 L379.798707,374.206204 C379.798707,374.206204 378.055443,382.331581 378.306186,387.832719 C378.55693,393.333858 376.037555,406.030118 376.037555,406.030118 C376.037555,406.030118 356.897472,406.030118 353.948252,403.876749 C350.999031,401.723381 358.90342,380.660567 358.90342,380.660567 C358.90342,380.660567 361.142201,343.840839 360.640714,342.881872 C360.139227,341.922906 360.640714,334.756496 362.383978,333.320917 C364.127242,331.885338 362.383978,329.019922 362.383978,329.019922 C362.383978,329.019922 361.888461,323.277607 362.383978,321.84777 C362.879494,320.417933 362.306367,315.628842 362.306367,315.628842 C362.306367,315.628842 360.640714,303.914518 360.39594,297.218978 C360.151167,290.523438 358.90342,275.461344 358.90342,275.461344 C358.90342,275.461344 360.204898,266.147308 360.40191,261.71424 C360.473551,260.083423 361.231752,258.050643 362.163085,256.132709 C363.239697,253.96572 364.476695,251.875886 365.864535,249.879328 C365.864535,249.879328 424.771335,233.14622 427.260859,234.817234 C427.917568,235.259392 428.872781,238.262623 429.816054,242.615298 C432.42498,254.748811 434.992115,277.540062 430.96828,286.01572 Z" id="Path" fill="#605D82"></path>
                        <ellipse id="Oval" fill="#A1616A" cx="394.676151" cy="123.358886" rx="17.1520456" ry="16.4976729"></ellipse>
                        <path d="M429.798144,242.615298 C427.822046,243.58575 426.496688,244.263343 426.496688,244.263343 C426.496688,244.263343 398.658196,256.936634 390.717987,256.218844 C384.592683,255.644613 368.957038,255.966182 362.145174,256.132709 C363.221787,253.96572 364.458785,251.875886 365.846625,249.879328 C365.846625,249.879328 424.753424,233.14622 427.242949,234.817234 C427.899658,235.259392 428.854871,238.251138 429.798144,242.615298 Z" id="Path" fill="#000000" opacity="0.1"></path>
                        <path d="M382.747927,149.704631 C382.747927,149.704631 366.837659,152.099176 363.112328,154.48798 C359.386996,156.876783 351.924394,161.40747 351.924394,171.22683 C351.924394,181.04619 350.1871,191.066531 349.190096,193.937688 C348.193093,196.808846 364.873502,219.97909 364.873502,219.97909 L358.90342,255.122062 C358.90342,255.122062 382.783748,254.410015 390.735897,255.122062 C398.688046,255.834109 426.514599,243.172303 426.514599,243.172303 C426.514599,243.172303 442.920384,234.800007 446.400942,234.558829 C449.8815,234.317652 439.439826,216.148965 439.439826,216.148965 C439.439826,216.148965 423.284784,186.742567 426.019082,181.959218 C428.753379,177.175869 430.741417,170.244894 430.741417,170.244894 L427.756376,145.857279 C427.756376,145.857279 423.284784,144.427443 419.553483,147.051681 C415.822182,149.675919 403.147698,148.251825 403.147698,148.251825 L382.747927,149.704631 Z" id="Path" fill="#5A5773"></path>
                        <path d="M355.781067,192.260932 L349.566212,193.937688 L347.822948,216.413112 C347.822948,216.413112 350.061728,222.38512 347.822948,224.303054 C345.584167,226.220987 345.08865,267.09479 345.08865,267.09479 C345.08865,267.09479 352.300509,272.119316 360.748175,268.289192 C360.748175,268.289192 359.506398,263.74702 363.237699,247.249347 C366.969001,230.751674 366.963031,222.38512 366.963031,222.38512 C366.963031,222.38512 366.963031,201.82763 368.706294,198.47986 C370.449558,195.13209 368.706294,186.765536 368.706294,186.765536 C368.706294,186.765536 365.225737,182.223364 365.47051,180.546608 C365.715283,178.869852 355.781067,192.260932 355.781067,192.260932 Z" id="Path" fill="#000000" opacity="0.1"></path>
                        <path d="M358.760138,269.638636 C355.099681,270.825872 351.114244,270.684954 347.554294,269.242416 C348.009105,268.017843 348.541438,266.821203 349.148306,265.659211 L355.918379,261.71424 C355.918379,261.71424 357.285528,265.096464 358.760138,269.638636 Z" id="Path" fill="#000000" opacity="0.1"></path>
                        <path d="M355.404952,192.260932 L349.190096,193.937688 L347.452803,216.413112 C347.452803,216.413112 349.691583,222.38512 347.452803,224.303054 C345.214022,226.220987 344.718505,267.09479 344.718505,267.09479 C344.718505,267.09479 351.924394,272.119316 360.37803,268.289192 C360.37803,268.289192 359.136253,263.74702 362.861584,247.249347 C366.586915,230.751674 366.592885,222.38512 366.592885,222.38512 C366.592885,222.38512 366.592885,201.82763 368.330179,198.47986 C370.067473,195.13209 368.330179,186.765536 368.330179,186.765536 C368.330179,186.765536 364.849622,182.223364 365.100365,180.546608 C365.351108,178.869852 355.404952,192.260932 355.404952,192.260932 Z" id="Path" fill="#5A5773"></path>
                        <path d="M419.040056,195.861364 C419.040056,195.861364 415.810242,222.637782 406.359602,227.656566 C406.359602,227.645081 427.487722,221.908508 419.040056,195.861364 Z" id="Path" fill="#000000" opacity="0.1"></path>
                        <path d="M371.565964,198.238683 C371.565964,198.238683 383.243444,203.739821 380.521087,207.564203 C377.798729,211.388586 371.565964,198.238683 371.565964,198.238683 Z" id="Path" fill="#000000" opacity="0.1"></path>
                        <path d="M371.565964,209.24096 C371.565964,209.24096 379.022596,216.648547 377.536046,219.278527 C376.049495,221.908508 371.565964,209.24096 371.565964,209.24096 Z" id="Path" fill="#000000" opacity="0.1"></path>
                        <path d="M431.73842,147.79244 C431.73842,147.79244 434.66376,152.575789 434.944354,155.682381 C435.224948,158.788974 431.73842,147.79244 431.73842,147.79244 Z" id="Path" fill="#000000" opacity="0.1"></path>
                        <path d="M431.73842,141.338077 C431.73842,141.338077 433.20706,140.143675 436.956272,141.338077 C440.705483,142.532478 431.73842,141.338077 431.73842,141.338077 Z" id="Path" fill="#000000" opacity="0.1"></path>
                        <path d="M417.362463,281.083071 C411.203714,281.923444 404.923321,281.149747 399.183563,278.843568 L396.04927,286.555498 L395.708975,282.983778 C396.216432,279.992031 397.213436,276.782077 399.183563,275.97241 C399.183563,275.97241 406.067068,281.261083 417.362463,281.083071 Z" id="Path" fill="#000000" opacity="0.1"></path>
                        <path d="M366.371992,291.120639 C366.371992,291.120639 381.661372,294.169808 385.947891,293.635773 L366.371992,291.120639 Z" id="Path" fill="#000000" opacity="0.1"></path>
                        <path d="M367.960034,294.979475 C367.960034,294.979475 374.485334,294.709586 377.744999,295.967153 L367.960034,294.979475 Z" id="Path" fill="#000000" opacity="0.1"></path>
                        <path d="M368.706294,297.580744 C371.684134,298.185855 374.705945,298.569808 377.744999,298.729207 L368.706294,297.580744 Z" id="Path" fill="#000000" opacity="0.1"></path>
                        <path d="M368.330179,330.484213 C368.610773,330.300459 381.380779,327.435043 382.96882,329.496535 L368.330179,330.484213 Z" id="Path" fill="#000000" opacity="0.1"></path>
                        <path d="M368.330179,334.251172 C368.330179,334.251172 379.422592,332.999347 379.703186,334.251172 C379.983779,335.502997 368.330179,334.251172 368.330179,334.251172 Z" id="Path" fill="#000000" opacity="0.1"></path>
                        <path d="M368.330179,337.656365 C368.330179,337.656365 380.168852,335.324985 381.565851,335.85902 C382.96285,336.393056 368.330179,337.656365 368.330179,337.656365 Z" id="Path" fill="#000000" opacity="0.1"></path>
                        <path d="M368.891367,417.985619 L355.470623,426.863239 C355.470623,426.863239 355.548234,425.82388 355.679576,424.296424 C358.664617,417.227633 362.55114,413.500871 362.55114,413.500871 C365.577972,412.748627 367.488398,413.44919 368.676444,414.821603 C368.724205,416.733794 368.891367,417.985619 368.891367,417.985619 Z" id="Path" fill="#000000" opacity="0.1"></path>
                        <path d="M370.198815,425.967438 C368.305548,430.119963 367.351153,434.612011 367.398847,439.146052 C367.473527,442.871633 366.491065,446.546335 364.557088,449.775079 C364.278335,450.228854 363.96294,450.660857 363.613815,451.0671 C363.613815,451.0671 354.288546,450.998192 351.022912,448.391181 C350.665167,448.119743 350.370316,447.779421 350.15725,447.392018 C348.288614,443.808813 353.79303,430.090421 353.79303,430.090421 C356.682549,419.507333 362.55114,413.862636 362.55114,413.862636 C372.992813,411.261367 370.198815,425.967438 370.198815,425.967438 Z" id="Path" fill="#5A5773"></path>
                        <path d="M364.557088,449.775079 C364.278335,450.228854 363.96294,450.660857 363.613815,451.0671 C363.613815,451.0671 354.288546,450.998192 351.022912,448.391181 C352.628864,443.28052 357.757164,427.822206 360.151167,430.446444 C362.407858,432.91564 363.97799,444.802233 364.557088,449.775079 Z" id="Path" fill="#000000" opacity="0.258947173"></path>
                        <path d="M363.26755,431.411153 L362.616811,454.569912 L365.745134,454.569912 C365.745134,454.569912 366.252591,434.253599 367.64959,431.411153 C369.046589,428.568707 363.26755,431.411153 363.26755,431.411153 Z" id="Path" fill="#5A5773"></path>
                        <path d="M402.168604,433.317602 C402.168604,433.317602 388.437416,420.856777 389.864265,419.869099 C390.24038,419.604952 390.610525,418.542624 390.95082,417.130014 C393.583626,416.682113 398.114918,417.744442 401.86413,427.862402 C401.953681,430.722075 402.168604,433.317602 402.168604,433.317602 Z" id="Path" fill="#000000" opacity="0.1"></path>
                        <path d="M404.216342,447.214006 C404.109884,447.252388 403.999965,447.281223 403.887988,447.300141 C402.276066,447.575772 396.335834,447.414987 393.010498,447.300141 C391.752117,447.242746 390.75653,446.254981 390.735897,445.043411 C390.735897,444.182063 390.735897,443.131219 390.664256,442.011468 C390.509034,438.474201 390.067248,434.265084 388.74786,433.317602 C386.413558,431.594907 384.568802,425.743488 388.74786,418.341643 C388.74786,418.341643 396.75971,412.461511 402.538749,430.147844 C402.538749,430.147844 403.099937,435.201081 405.619312,436.992684 C408.138686,438.784286 405.338718,446.674228 404.216342,447.214006 Z" id="Path" fill="#5A5773"></path>
                        <path d="M403.887988,447.300141 C402.276066,447.575772 396.335834,447.414987 393.010498,447.300141 C391.752117,447.242746 390.75653,446.254981 390.735897,445.043411 C390.735897,444.182063 390.735897,443.131219 390.664256,442.011468 C391.6732,437.721958 393.12393,433.317602 394.992566,432.312697 C394.992566,432.312697 400.646233,431.698269 403.887988,447.300141 Z" id="Path" fill="#000000" opacity="0.375855655"></path>
                        <polygon id="Path" fill="#5A5773" points="389.762774 431.790146 391.261264 451.0671 393.171691 451.0671 393.171691 430.147844"></polygon>
                        <path d="M394.431378,97.0935345 C389.015715,97.4812872 383.773317,99.1010727 379.136028,101.81946 C377.942011,102.51428 376.747995,103.352659 376.252478,104.598741 C375.822632,105.678296 376.001735,106.895667 376.019645,108.04413 C376.180837,117.93814 364.71828,125.420378 365.076485,135.302903 C365.219767,139.224905 367.267505,142.877017 367.64362,146.787534 C368.270479,153.305063 364.258583,159.311525 360.413851,164.715044 C364.374556,164.944523 368.275406,163.7007 371.30925,161.240943 C375.37544,174.251314 375.90575,188.047158 372.849531,201.310822 L378.347977,201.310822 C378.891341,201.276784 379.436458,201.343055 379.953929,201.50606 C380.437707,201.724445 380.870328,202.035067 381.225556,202.419089 C386.365797,207.340253 389.810534,214.615767 387.846377,221.334276 L399.547738,217.113674 C402.347707,216.103027 405.189466,215.075152 407.625259,213.404138 C410.061053,211.733125 412.102821,209.327094 412.616248,206.51336 C412.932662,204.790665 412.831171,202.734916 414.305781,201.735753 C415.030734,201.359486 415.806197,201.081231 416.610232,200.90886 C419.822137,199.823562 421.243016,196.251842 421.899725,193.036145 C422.699379,189.090849 422.950329,185.060828 422.645985,181.051932 C422.126588,174.333423 420.06094,167.511552 421.762413,160.953827 C422.723596,157.273003 424.860886,153.839098 425.034018,150.043427 C425.314612,143.772819 420.222132,138.380784 419.463932,132.150372 C418.932594,127.803439 420.562427,123.41631 420.031089,119.075119 C419.432375,114.527654 416.564343,110.547277 412.347594,108.411639 C410.908804,107.699592 409.362553,107.217237 407.941673,106.436282 C404.699919,104.627453 402.6283,101.365817 399.68505,99.1263142 C396.7418,96.8868111 391.840362,96.0426907 389.625462,98.959787 L394.431378,97.0935345 Z" id="Path" fill="#000000" opacity="0.1"></path>
                        <path d="M394.431378,96.358518 C389.013206,96.7549969 383.770638,98.3846756 379.136028,101.113155 C377.942011,101.807976 376.747995,102.646354 376.252478,103.898179 C375.822632,104.977734 376.001735,106.195105 376.019645,107.343568 C376.180837,117.231836 364.71828,124.714073 365.076485,134.596598 C365.219767,138.5186 367.267505,142.170713 367.64362,146.081229 C368.270479,152.6045 364.258583,158.60522 360.413851,164.008739 C364.374556,164.238218 368.275406,162.994395 371.30925,160.534638 C375.37544,173.545009 375.90575,187.340854 372.849531,200.604517 L378.347977,200.604517 C378.891341,200.570479 379.436458,200.63675 379.953929,200.799756 C380.437707,201.01814 380.870328,201.328762 381.225556,201.712784 C386.365797,206.633948 389.810534,213.909462 387.846377,220.627972 L399.547738,216.40737 C402.347707,215.396722 405.189466,214.368848 407.625259,212.697834 C410.061053,211.02682 412.102821,208.62079 412.616248,205.807055 C412.932662,204.08436 412.831171,202.028611 414.305781,201.029448 C415.029957,200.652847 415.805753,200.376406 416.610232,200.208297 C419.822137,199.117257 421.243016,195.545537 421.899725,192.32984 C422.699379,188.384544 422.950329,184.354523 422.645985,180.345627 C422.126588,173.627118 420.06094,166.805247 421.762413,160.247522 C422.723596,156.566698 424.860886,153.132793 425.034018,149.337122 C425.314612,143.066514 420.222132,137.674479 419.463932,131.444067 C418.932594,127.097134 420.562427,122.710005 420.031089,118.368814 C419.432375,113.821349 416.564343,109.840972 412.347594,107.705334 C410.908804,106.993287 409.362553,106.516674 407.941673,105.729977 C404.699919,103.921148 402.6283,100.659512 399.68505,98.4200094 C396.7418,96.1805063 391.840362,95.3363859 389.625462,98.2534822 L394.431378,96.358518 Z" id="Path" fill="#434343"></path>
                        <path d="M394.431378,96.358518 C389.013206,96.7549969 383.770638,98.3846756 379.136028,101.113155 C377.942011,101.807976 376.747995,102.646354 376.252478,103.898179 C375.822632,104.977734 376.001735,106.195105 376.019645,107.343568 C376.180837,117.231836 364.71828,124.714073 365.076485,134.596598 C365.219767,138.5186 367.267505,142.170713 367.64362,146.081229 C368.270479,152.6045 364.258583,158.60522 360.413851,164.008739 C364.374556,164.238218 368.275406,162.994395 371.30925,160.534638 C375.37544,173.545009 375.90575,187.340854 372.849531,200.604517 L378.347977,200.604517 C378.891341,200.570479 379.436458,200.63675 379.953929,200.799756 C380.437707,201.01814 380.870328,201.328762 381.225556,201.712784 C386.365797,206.633948 389.810534,213.909462 387.846377,220.627972 L399.547738,216.40737 C402.347707,215.396722 405.189466,214.368848 407.625259,212.697834 C410.061053,211.02682 412.102821,208.62079 412.616248,205.807055 C412.932662,204.08436 412.831171,202.028611 414.305781,201.029448 C415.029957,200.652847 415.805753,200.376406 416.610232,200.208297 C419.822137,199.117257 421.243016,195.545537 421.899725,192.32984 C422.699379,188.384544 422.950329,184.354523 422.645985,180.345627 C422.126588,173.627118 420.06094,166.805247 421.762413,160.247522 C422.723596,156.566698 424.860886,153.132793 425.034018,149.337122 C425.314612,143.066514 420.222132,137.674479 419.463932,131.444067 C418.932594,127.097134 420.562427,122.710005 420.031089,118.368814 C419.432375,113.821349 416.564343,109.840972 412.347594,107.705334 C410.908804,106.993287 409.362553,106.516674 407.941673,105.729977 C404.699919,103.921148 402.6283,100.659512 399.68505,98.4200094 C396.7418,96.1805063 391.840362,95.3363859 389.625462,98.2534822 L394.431378,96.358518 Z" id="Path" fill="#434343"></path>
                        <path d="M394.431378,96.358518 C389.013206,96.7549969 383.770638,98.3846756 379.136028,101.113155 C377.942011,101.807976 376.747995,102.646354 376.252478,103.898179 C375.822632,104.977734 376.001735,106.195105 376.019645,107.343568 C376.180837,117.231836 364.71828,124.714073 365.076485,134.596598 C365.219767,138.5186 367.267505,142.170713 367.64362,146.081229 C368.270479,152.6045 364.258583,158.60522 360.413851,164.008739 C364.374556,164.238218 368.275406,162.994395 371.30925,160.534638 C375.37544,173.545009 375.90575,187.340854 372.849531,200.604517 L378.347977,200.604517 C378.891341,200.570479 379.436458,200.63675 379.953929,200.799756 C380.437707,201.01814 380.870328,201.328762 381.225556,201.712784 C386.365797,206.633948 389.810534,213.909462 387.846377,220.627972 L399.547738,216.40737 C402.347707,215.396722 405.189466,214.368848 407.625259,212.697834 C410.061053,211.02682 412.102821,208.62079 412.616248,205.807055 C412.932662,204.08436 412.831171,202.028611 414.305781,201.029448 C415.029957,200.652847 415.805753,200.376406 416.610232,200.208297 C419.822137,199.117257 421.243016,195.545537 421.899725,192.32984 C422.699379,188.384544 422.950329,184.354523 422.645985,180.345627 C422.126588,173.627118 420.06094,166.805247 421.762413,160.247522 C422.723596,156.566698 424.860886,153.132793 425.034018,149.337122 C425.314612,143.066514 420.222132,137.674479 419.463932,131.444067 C418.932594,127.097134 420.562427,122.710005 420.031089,118.368814 C419.432375,113.821349 416.564343,109.840972 412.347594,107.705334 C410.908804,106.993287 409.362553,106.516674 407.941673,105.729977 C404.699919,103.921148 402.6283,100.659512 399.68505,98.4200094 C396.7418,96.1805063 391.840362,95.3363859 389.625462,98.2534822 L394.431378,96.358518 Z" id="Path" fill="url(#linearGradient-2)" opacity="0.763997396"></path>
                        <g id="Group" opacity="0.217373512" transform="translate(360.282509, 104.805464)" fill="#000000">
                            <path d="M15.725196,0.114846314 C15.7013548,0.338062745 15.689399,0.562305993 15.6893755,0.786697248 C15.7072858,0.562746936 15.7192259,0.327311994 15.725196,0.114846314 Z" id="Path"></path>
                            <path d="M59.1396323,23.1070783 C59.3545553,20.063651 60.059025,17.008739 59.7963414,13.9767964 C59.5754483,17.0202237 58.8709786,20.0693933 59.1396323,23.1070783 Z" id="Path"></path>
                            <path d="M7.36111111,38.2265955 C7.01484635,34.6663597 5.28949266,31.3358166 4.88352708,27.7755809 C4.80268783,28.427132 4.77275351,29.0835962 4.79397585,29.7394529 C4.93725782,33.6212583 6.93723529,37.2389172 7.34320087,41.1034956 C7.44185941,40.1471354 7.4478553,39.1840235 7.36111111,38.2265955 L7.36111111,38.2265955 Z" id="Path"></path>
                            <path d="M61.4799045,52.3814036 C60.9206895,54.7180457 60.7195609,57.1207608 60.8828963,59.5133597 C60.9453686,58.1182393 61.1452664,56.7319623 61.4799045,55.3731501 C62.4410877,51.6923257 64.578377,48.2584209 64.7515094,44.4627503 C64.7797175,43.7875978 64.7477603,43.111362 64.6559881,42.4414552 C64.214202,45.858133 62.3575065,49.0106643 61.4799045,52.3814036 Z" id="Path"></path>
                            <path d="M11.0267415,52.6914886 C8.53923811,54.7026817 5.45578549,55.9082975 2.21490042,56.1368781 C1.53431108,57.1590102 0.829841399,58.1639155 0.131341804,59.1458515 C4.09204743,59.3753304 7.99289696,58.1315077 11.0267415,55.6717505 C13.2038802,62.6393337 14.3730592,69.8621085 14.5013292,77.1365265 C14.674865,68.8637953 13.5025101,60.615836 11.0267415,52.6914886 Z" id="Path"></path>
                            <path d="M61.6172164,84.4350097 C60.9605073,87.6507065 59.5396278,91.2224268 56.3277237,92.3134668 C55.5248301,92.4867602 54.7497573,92.7629439 54.0232721,93.134618 C52.5486618,94.1395232 52.6501532,96.2067568 52.3397089,97.9122246 C51.8203118,100.748929 49.7845138,103.160701 47.3427503,104.831715 C44.9009868,106.502729 42.0651978,107.530603 39.2652293,108.541251 L28.101176,112.560872 C28.0462266,113.641038 27.8660068,114.71192 27.5638686,115.753599 L39.2652293,111.532997 C42.0651978,110.52235 44.9069568,109.494475 47.3427503,107.823461 C49.7785438,106.152448 51.8203118,103.746417 52.3397089,100.932683 C52.6501532,99.2099879 52.5486618,97.1542389 54.0232721,96.155076 C54.7474482,95.7784752 55.5232446,95.5020336 56.3277237,95.3339249 C59.5396278,94.2428849 60.9605073,90.6711645 61.6172164,87.4554678 C62.2969612,84.1090804 62.5793649,80.6992624 62.4589979,77.291569 C62.3777266,79.6905551 62.0962274,82.0793851 61.6172164,84.4350097 L61.6172164,84.4350097 Z" id="Path"></path>
                            <path d="M20.9430477,93.8466651 C20.5878189,93.4626434 20.1551978,93.1520216 19.6714202,92.9336369 C19.1539492,92.7706311 18.6088322,92.7043601 18.0654681,92.7383982 L13.1879111,92.7383982 C12.9968685,93.7433034 12.7938857,94.7424663 12.5909029,95.735887 L18.0893485,95.735887 C18.6327125,95.7018489 19.1778295,95.7681198 19.6953005,95.9311257 C20.1790781,96.1495104 20.6116992,96.4601322 20.966928,96.8441539 C24.7280797,100.444586 27.5817789,105.308327 28.0653555,110.292657 C28.6623637,104.303422 25.4862801,98.1648865 20.9430477,93.8466651 Z" id="Path"></path>
                        </g>
                        <path d="M353.948252,218.204714 C353.948252,218.204714 358.389993,216.413112 359.381026,218.204714 C360.37206,219.996317 353.948252,218.204714 353.948252,218.204714 Z" id="Path" fill="#000000" opacity="0.1"></path>
                        <path d="M355.488533,221.276853 C355.488533,221.276853 359.930274,219.479508 360.927278,221.276853 C361.924281,223.074198 355.488533,221.276853 355.488533,221.276853 Z" id="Path" fill="#000000" opacity="0.1"></path>
                        <ellipse id="Oval" fill="#FEFEFE" cx="3.35518609" cy="3.62011987" rx="3.31339551" ry="3.1869852"></ellipse>
                        <ellipse id="Oval" fill="#FEFEFE" cx="13.5043255" cy="3.62011987" rx="3.31339551" ry="3.1869852"></ellipse>
                        <ellipse id="Oval" fill="#FEFEFE" cx="23.6534649" cy="3.62011987" rx="3.31339551" ry="3.1869852"></ellipse>
                    </g>
                </g>
            </g>
        </g>
    </g>
</svg>